<svg xmlns="http://www.w3.org/2000/svg" viewBox="0 0 500 500"><g id="Ebene_2" data-name="Ebene 2"><g id="Ebene_1-2" data-name="Ebene 1"><path d="M260.74,500H239.26c-1-.14-2.07-.36-3.11-.42a243,243,0,0,1-78.68-17.31q-74-29.92-117.64-96.92A244.17,244.17,0,0,1,1.41,276.28C.87,271.13.47,266,0,260.79V239.31c.13-.87.29-1.74.39-2.61,1.33-11,2.05-22.2,4.07-33.12A241.08,241.08,0,0,1,61.21,86.32C103.44,38.24,156.46,10,220.07,2A240.47,240.47,0,0,1,317,9.23c63.3,18.09,112.27,55.38,146.83,111.32,19.61,31.73,31,66.39,34.83,103.51.52,5.08.93,10.17,1.39,15.25v21.48a25.67,25.67,0,0,0-.39,2.61A238.89,238.89,0,0,1,485,335.26q-34.53,92.48-122.3,137.87a239.59,239.59,0,0,1-87,25.5C270.77,499.14,265.75,499.55,260.74,500ZM325,210H273.55c0-13-.31-25.78.12-38.52.27-8,3.77-14.61,11.86-17.4A39.71,39.71,0,0,1,297,152c9.43-.32,18.88-.16,28.31-.19h2.88V103.48c-6.38-.39-12.61-.87-18.85-1.12-11.13-.44-22.27-1.36-33.38.25-13.18,1.92-25.12,6.63-35.06,15.71-13.71,12.54-19.68,28.68-20.52,46.74-.65,14-.25,28-.32,42,0,.95,0,1.9,0,3.11H175.18v53.28h44.88V398.21h53.36V263.37h44.91C320.56,245.56,322.76,228,325,210Z"/></g></g></svg>