<svg xmlns="http://www.w3.org/2000/svg" viewBox="0 0 499.65 487.34"><g id="Ebene_2" data-name="Ebene 2"><g id="Ebene_1-2" data-name="Ebene 1"><path d="M0,240.67l.75-9.29Q8.48,135.89,77.3,69.26c32-30.91,69.93-51.47,113.16-62.1a247.62,247.62,0,0,1,81-6.21C372.6,9.67,458.86,79.31,488.52,176.09a244.23,244.23,0,0,1,10.54,89.37Q492,365.77,418.19,434.34a241.51,241.51,0,0,1-86.72,51.71,23.18,23.18,0,0,1-8.78,1c-6.16-.39-10.38-5.5-10.38-12.18,0-9.64.11-19.29.16-28.94.07-13,.18-26.09.16-39.13,0-11.7-1.66-23.09-7-33.7a44.39,44.39,0,0,0-9.74-12.94c3.2-.44,6-.81,8.83-1.22,20.24-2.95,39.82-8,57.49-18.77,21-12.84,34.22-31.62,41.13-55a159.7,159.7,0,0,0,5.81-59.09,93,93,0,0,0-23.34-54.5A4,4,0,0,1,385,167c5.43-16.33,5.31-32.86,1.19-49.42-1-4.16-2.66-8.17-3.8-12.3-.55-2-1.85-2.34-3.52-2.45A52.8,52.8,0,0,0,362,104.69c-14.92,3.91-28.35,11.07-41.34,19.16a13.29,13.29,0,0,0-2.26,1.47c-3.55,3.33-7.31,3.27-11.93,2.07-23.48-6.11-47.4-7.89-71.59-6.35a231.32,231.32,0,0,0-45.27,7.41,4.45,4.45,0,0,1-3.2-.63c-12.23-8-24.82-15.23-38.59-20.22-7.92-2.87-16-5-24.55-4.78-3.86.1-3.92.1-5.19,3.63-6.83,18.88-8.81,38.09-3.07,57.55,1.25,4.21.78,6.8-2,10.18C98.47,191.7,91.54,212.13,91.2,234.79c-.29,18.63,1.66,37,7.69,54.73,10.25,30.2,31,49.91,60.69,60.69,13.83,5,28.15,7.82,42.7,9.58.66.08,1.31.21,2.32.38a45.62,45.62,0,0,0-10.08,13.77A68.74,68.74,0,0,0,189,392a2.75,2.75,0,0,1-1.2,1.86c-13.26,5.67-26.89,8.22-41.14,4.21-12.74-3.58-22-11.81-28.9-22.75-5.41-8.53-11.63-16.24-20.15-21.86-7.65-5.05-16-7.27-25.11-5.79-2.38.39-5.09.65-6,3.35s.92,4.56,2.64,6.13A44,44,0,0,0,76.68,363c5.64,3.25,9.81,7.9,13.56,13a119.55,119.55,0,0,1,14.34,25.48c5.7,13.95,16.41,22.34,30.6,26.59,11.82,3.53,23.92,3.82,36.08,2.67,5.38-.51,10.72-1.32,16.41-2V431c.08,14.15,0,28.31.3,42.46.28,11.64-9.2,15.9-18,12.93A249.77,249.77,0,0,1,7.37,310.12a243.31,243.31,0,0,1-7-47.87c0-.95-.24-1.89-.37-2.84Z"/></g></g></svg>