<svg xmlns="http://www.w3.org/2000/svg" xmlns:xlink="http://www.w3.org/1999/xlink" viewBox="0 0 500 500"><defs><style>.cls-1{fill:#fff;}.cls-1,.cls-3{fill-rule:evenodd;}.cls-2{mask:url(#mask);}.cls-4{mask:url(#mask-7);}.cls-5{mask:url(#mask-8);}.cls-6{mask:url(#mask-9);}.cls-7{mask:url(#mask-10-2);}.cls-8{mask:url(#mask-11);}.cls-9{mask:url(#mask-12);}.cls-10{mask:url(#mask-13-2);}</style><mask id="mask" x="0" y="0" width="500" height="500" maskUnits="userSpaceOnUse"><g id="mask-2"><path id="path-1" class="cls-1" d="M333.48,313.93c12.25,0,22.21,9.5,22.21,21.2s-10,21.21-22.21,21.21-22.21-9.5-22.21-21.21S321.21,313.93,333.48,313.93Zm120-290.78c12.28,0,22.22,9.49,22.22,21.2s-9.94,21.21-22.22,21.21-22.2-9.49-22.2-21.21S441.29,23.15,453.53,23.15ZM60.63,64.72H412.32a46.75,46.75,0,0,0,41.21,24c25.63,0,46.47-19.9,46.47-44.36S479.16,0,453.53,0c-19.43,0-36.09,11.47-43,27.68H60.63C26.63,27.68,0,52.3,0,83.73V441.15C0,473,27.77,500,60.63,500H435c32.93,0,59.73-26.4,59.73-58.85v-212c0-31.92-26.8-57.89-59.73-57.89H212.91c-33.9,0-62.55,26.51-62.55,57.89v66.64c0,30.91,28.06,56.06,62.55,56.06h77.55c6.92,16.21,23.59,27.67,43,27.67,25.62,0,46.46-19.9,46.46-44.36s-20.84-44.35-46.46-44.35a46.76,46.76,0,0,0-41.23,24H212.91c-11.42,0-23.75-7.28-23.75-19V229.12c0-10.91,11.32-20.85,23.75-20.85H435a20.67,20.67,0,0,1,20.93,20.85v212c0,11.82-9.59,21.8-20.93,21.8H60.63C49,463,38.8,452.76,38.8,441.15V83.73c0-10.84,9.39-19,21.83-19Z"/></g></mask><mask id="mask-7" x="0" y="0" width="500" height="500" maskUnits="userSpaceOnUse"><g id="mask-4-2" data-name="mask-4"><polygon id="path-3" class="cls-1" points="0 84.31 38.8 84.31 38.8 441.15 0 441.15 0 84.31"/></g></mask><mask id="mask-8" x="0" y="0" width="500" height="500" maskUnits="userSpaceOnUse"><g id="mask-7-2" data-name="mask-7"><path id="path-6" class="cls-1" d="M57.61,462.72a18.93,18.93,0,0,0,3,.23H435V500H60.63c-1,0-2,0-3-.08Z"/></g></mask><mask id="mask-9" x="0" y="0" width="500" height="500" maskUnits="userSpaceOnUse"><g id="mask-10"><polygon id="path-9" class="cls-1" points="494.72 229.13 494.72 441.15 494.72 441.15 455.92 441.15 455.92 229.13 455.92 229.13 494.72 229.13"/></g></mask><mask id="mask-10-2" x="0" y="0" width="500" height="500" maskUnits="userSpaceOnUse"><g id="mask-13"><polygon id="path-12" class="cls-1" points="212.91 171.23 434.99 171.23 434.99 208.27 212.91 208.27 212.91 171.23"/></g></mask><mask id="mask-11" x="0" y="0" width="500" height="500" maskUnits="userSpaceOnUse"><g id="mask-16"><polygon id="path-15" class="cls-1" points="189.16 229.13 189.16 295.76 189.16 295.76 150.36 295.76 150.36 229.13 150.36 229.13 189.16 229.13"/></g></mask><mask id="mask-12" x="0" y="0" width="500" height="500" maskUnits="userSpaceOnUse"><g id="mask-19"><path id="path-18" class="cls-1" d="M453.53,0C479.16,0,500,19.9,500,44.35s-20.84,44.36-46.47,44.36a46.75,46.75,0,0,1-41.21-24H60.63a27.09,27.09,0,0,0-3,.17V27.74c1,0,2-.06,3-.06H410.52C417.44,11.47,434.1,0,453.53,0Zm0,23.15c-12.24,0-22.2,9.49-22.2,21.2s10,21.21,22.2,21.21,22.22-9.49,22.22-21.21S465.81,23.15,453.53,23.15Z"/></g></mask><mask id="mask-13-2" x="0" y="0" width="500" height="500" maskUnits="userSpaceOnUse"><g id="mask-22"><path id="path-21" class="cls-1" d="M333.48,290.78c25.62,0,46.46,19.9,46.46,44.35s-20.84,44.36-46.46,44.36c-19.43,0-36.1-11.46-43-27.67H212.91v-37h79.34A46.76,46.76,0,0,1,333.48,290.78Zm0,23.15c-12.27,0-22.21,9.5-22.21,21.2s9.94,21.21,22.21,21.21,22.21-9.5,22.21-21.21S345.73,313.93,333.48,313.93Z"/></g></mask></defs><g id="Ebene_2" data-name="Ebene 2"><g id="Layer_1" data-name="Layer 1"><g id="Group-8"><g class="cls-2"><polygon id="Fill-1" class="cls-3" points="0 85.79 59.06 85.79 59.06 10.22 0 10.22 0 85.79"/></g><g class="cls-2"><polygon id="Fill-3" class="cls-3" points="0 500 59.06 500 59.06 439.66 0 439.66 0 500"/></g><g class="cls-2"><polygon id="Fill-4" class="cls-3" points="433.53 500 500 500 500 439.66 433.53 439.66 433.53 500"/></g><g class="cls-2"><polygon id="Fill-5" class="cls-3" points="433.53 230.61 500 230.61 500 155.03 433.53 155.03 433.53 230.61"/></g><g class="cls-2"><polygon id="Fill-6" class="cls-3" points="140.16 230.61 214.37 230.61 214.37 155.03 140.16 155.03 140.16 230.61"/></g><g class="cls-2"><polygon id="Fill-7" class="cls-3" points="140.16 369.84 214.37 369.84 214.37 294.27 140.16 294.27 140.16 369.84"/></g></g><g id="Group-11"><g class="cls-4"><path id="Fill-9" class="cls-3" d="M333.48,313.93c12.25,0,22.21,9.5,22.21,21.2s-10,21.21-22.21,21.21-22.21-9.5-22.21-21.21S321.21,313.93,333.48,313.93Zm120-290.78c12.28,0,22.22,9.49,22.22,21.2s-9.94,21.21-22.22,21.21-22.2-9.49-22.2-21.21S441.29,23.15,453.53,23.15ZM60.63,64.72H412.32a46.75,46.75,0,0,0,41.21,24c25.63,0,46.47-19.9,46.47-44.36S479.16,0,453.53,0c-19.43,0-36.09,11.47-43,27.68H60.63C26.63,27.68,0,52.3,0,83.73V441.15C0,473,27.77,500,60.63,500H435c32.93,0,59.73-26.4,59.73-58.85v-212c0-31.92-26.8-57.89-59.73-57.89H212.91c-33.9,0-62.55,26.51-62.55,57.89v66.64c0,30.91,28.06,56.06,62.55,56.06h77.55c6.92,16.21,23.59,27.67,43,27.67,25.62,0,46.46-19.9,46.46-44.36s-20.84-44.35-46.46-44.35a46.76,46.76,0,0,0-41.23,24H212.91c-11.42,0-23.75-7.28-23.75-19V229.12c0-10.91,11.32-20.85,23.75-20.85H435a20.67,20.67,0,0,1,20.93,20.85v212c0,11.82-9.59,21.8-20.93,21.8H60.63C49,463,38.8,452.76,38.8,441.15V83.73c0-10.84,9.39-19,21.83-19Z"/></g></g><g id="Group-14"><g class="cls-5"><path id="Fill-12" class="cls-3" d="M333.48,313.93c12.25,0,22.21,9.5,22.21,21.2s-10,21.21-22.21,21.21-22.21-9.5-22.21-21.21S321.21,313.93,333.48,313.93Zm120-290.78c12.28,0,22.22,9.49,22.22,21.2s-9.94,21.21-22.22,21.21-22.2-9.49-22.2-21.21S441.29,23.15,453.53,23.15ZM60.63,64.72H412.32a46.75,46.75,0,0,0,41.21,24c25.63,0,46.47-19.9,46.47-44.36S479.16,0,453.53,0c-19.43,0-36.09,11.47-43,27.68H60.63C26.63,27.68,0,52.3,0,83.73V441.15C0,473,27.77,500,60.63,500H435c32.93,0,59.73-26.41,59.73-58.85v-212c0-31.92-26.8-57.89-59.73-57.89H212.91c-33.9,0-62.55,26.51-62.55,57.89v66.64c0,30.91,28.06,56.06,62.55,56.06h77.55c6.92,16.21,23.59,27.67,43,27.67,25.62,0,46.46-19.9,46.46-44.36s-20.84-44.35-46.46-44.35a46.76,46.76,0,0,0-41.23,24H212.91c-11.42,0-23.75-7.28-23.75-19V229.12c0-10.91,11.32-20.85,23.75-20.85H435a20.67,20.67,0,0,1,20.93,20.85v212c0,11.82-9.59,21.8-20.93,21.8H60.63C49,463,38.8,452.76,38.8,441.15V83.73c0-10.84,9.39-19,21.83-19Z"/></g></g><g id="Group-17"><g class="cls-6"><path id="Fill-15" class="cls-3" d="M333.48,313.93c12.25,0,22.21,9.5,22.21,21.2s-10,21.21-22.21,21.21-22.21-9.5-22.21-21.21S321.21,313.93,333.48,313.93Zm120-290.78c12.28,0,22.22,9.49,22.22,21.2s-9.94,21.21-22.22,21.21-22.2-9.49-22.2-21.21S441.29,23.15,453.53,23.15ZM60.63,64.72H412.32a46.75,46.75,0,0,0,41.21,24c25.63,0,46.47-19.9,46.47-44.36S479.16,0,453.53,0c-19.43,0-36.09,11.47-43,27.68H60.63C26.63,27.68,0,52.3,0,83.73V441.15C0,473,27.77,500,60.63,500H435c32.93,0,59.73-26.4,59.73-58.85v-212c0-31.92-26.8-57.89-59.73-57.89H212.91c-33.9,0-62.55,26.51-62.55,57.89v66.64c0,30.91,28.06,56.06,62.55,56.06h77.55c6.92,16.21,23.59,27.67,43,27.67,25.62,0,46.46-19.9,46.46-44.36s-20.84-44.35-46.46-44.35a46.76,46.76,0,0,0-41.23,24H212.91c-11.42,0-23.75-7.28-23.75-19V229.12c0-10.91,11.32-20.85,23.75-20.85H435a20.67,20.67,0,0,1,20.93,20.85v212c0,11.82-9.59,21.8-20.93,21.8H60.63C49,463,38.8,452.76,38.8,441.15V83.73c0-10.84,9.39-19,21.83-19Z"/></g></g><g id="Group-20"><g class="cls-7"><path id="Fill-18" class="cls-3" d="M333.48,313.93c12.25,0,22.21,9.5,22.21,21.2s-10,21.21-22.21,21.21-22.21-9.5-22.21-21.21S321.21,313.93,333.48,313.93Zm120-290.78c12.28,0,22.22,9.49,22.22,21.2s-9.94,21.21-22.22,21.21-22.2-9.49-22.2-21.21S441.29,23.15,453.53,23.15ZM60.63,64.72H412.32a46.75,46.75,0,0,0,41.21,24c25.63,0,46.47-19.9,46.47-44.36S479.16,0,453.53,0c-19.43,0-36.09,11.47-43,27.68H60.63C26.63,27.68,0,52.3,0,83.73V441.15C0,473,27.77,500,60.63,500H435c32.93,0,59.73-26.4,59.73-58.85v-212c0-31.92-26.8-57.89-59.73-57.89H212.91c-33.9,0-62.55,26.51-62.55,57.89v66.64c0,30.91,28.06,56.06,62.55,56.06h77.55c6.92,16.21,23.59,27.67,43,27.67,25.62,0,46.46-19.9,46.46-44.36s-20.84-44.35-46.46-44.35a46.76,46.76,0,0,0-41.23,24H212.91c-11.42,0-23.75-7.28-23.75-19V229.12c0-10.91,11.32-20.85,23.75-20.85H435a20.67,20.67,0,0,1,20.93,20.85v212c0,11.82-9.59,21.8-20.93,21.8H60.63C49,463,38.8,452.76,38.8,441.15V83.73c0-10.84,9.39-19,21.83-19Z"/></g></g><g id="Group-23"><g class="cls-8"><path id="Fill-21" class="cls-3" d="M333.48,313.93c12.25,0,22.21,9.5,22.21,21.2s-10,21.21-22.21,21.21-22.21-9.5-22.21-21.21S321.21,313.93,333.48,313.93Zm120-290.78c12.28,0,22.22,9.49,22.22,21.2s-9.94,21.21-22.22,21.21-22.2-9.49-22.2-21.21S441.29,23.15,453.53,23.15ZM60.63,64.72H412.32a46.75,46.75,0,0,0,41.21,24c25.63,0,46.47-19.9,46.47-44.36S479.16,0,453.53,0c-19.43,0-36.09,11.47-43,27.68H60.63C26.63,27.68,0,52.3,0,83.73V441.15C0,473,27.77,500,60.63,500H435c32.93,0,59.73-26.4,59.73-58.85v-212c0-31.92-26.8-57.89-59.73-57.89H212.91c-33.9,0-62.55,26.51-62.55,57.89v66.64c0,30.91,28.06,56.06,62.55,56.06h77.55c6.92,16.21,23.59,27.67,43,27.67,25.62,0,46.46-19.9,46.46-44.36s-20.84-44.35-46.46-44.35a46.76,46.76,0,0,0-41.23,24H212.91c-11.42,0-23.75-7.28-23.75-19V229.12c0-10.91,11.32-20.85,23.75-20.85H435a20.67,20.67,0,0,1,20.93,20.85v212c0,11.82-9.59,21.8-20.93,21.8H60.63C49,463,38.8,452.76,38.8,441.15V83.73c0-10.84,9.39-19,21.83-19Z"/></g></g><g id="Group-26"><g class="cls-9"><path id="Fill-24" class="cls-3" d="M333.48,313.93c12.25,0,22.21,9.5,22.21,21.2s-10,21.21-22.21,21.21-22.21-9.5-22.21-21.21S321.21,313.93,333.48,313.93Zm120-290.78c12.28,0,22.22,9.49,22.22,21.2s-9.94,21.21-22.22,21.21-22.2-9.49-22.2-21.21S441.29,23.15,453.53,23.15ZM60.63,64.72H412.32a46.75,46.75,0,0,0,41.21,24c25.63,0,46.47-19.9,46.47-44.36S479.16,0,453.53,0c-19.43,0-36.09,11.47-43,27.68H60.63C26.63,27.68,0,52.3,0,83.73V441.15C0,473,27.77,500,60.63,500H435c32.93,0,59.73-26.4,59.73-58.85v-212c0-31.92-26.8-57.89-59.73-57.89H212.91c-33.9,0-62.55,26.51-62.55,57.89v66.64c0,30.91,28.06,56.06,62.55,56.06h77.55c6.92,16.21,23.59,27.67,43,27.67,25.62,0,46.46-19.9,46.46-44.36s-20.84-44.35-46.46-44.35a46.76,46.76,0,0,0-41.23,24H212.91c-11.42,0-23.75-7.28-23.75-19V229.12c0-10.91,11.32-20.85,23.75-20.85H435a20.67,20.67,0,0,1,20.93,20.85v212c0,11.82-9.59,21.8-20.93,21.8H60.63C49,463,38.8,452.76,38.8,441.15V83.73c0-10.84,9.39-19,21.83-19Z"/></g></g><g id="Group-29"><g class="cls-10"><path id="Fill-27" class="cls-3" d="M333.48,313.93c12.25,0,22.21,9.5,22.21,21.2s-10,21.21-22.21,21.21-22.21-9.5-22.21-21.21S321.21,313.93,333.48,313.93Zm120-290.78c12.28,0,22.22,9.49,22.22,21.2s-9.94,21.21-22.22,21.21-22.2-9.49-22.2-21.21S441.29,23.15,453.53,23.15ZM60.63,64.72H412.32a46.75,46.75,0,0,0,41.21,24c25.63,0,46.47-19.9,46.47-44.36S479.16,0,453.53,0c-19.43,0-36.09,11.47-43,27.68H60.63C26.63,27.68,0,52.3,0,83.73V441.15C0,473,27.77,500,60.63,500H435c32.93,0,59.73-26.4,59.73-58.85v-212c0-31.92-26.8-57.89-59.73-57.89H212.91c-33.9,0-62.55,26.51-62.55,57.89v66.64c0,30.91,28.06,56.06,62.55,56.06h77.55c6.92,16.21,23.59,27.67,43,27.67,25.62,0,46.46-19.9,46.46-44.36s-20.84-44.35-46.46-44.35a46.76,46.76,0,0,0-41.23,24H212.91c-11.42,0-23.75-7.28-23.75-19V229.12c0-10.91,11.32-20.85,23.75-20.85H435a20.67,20.67,0,0,1,20.93,20.85v212c0,11.82-9.59,21.8-20.93,21.8H60.63C49,463,38.8,452.76,38.8,441.15V83.73c0-10.84,9.39-19,21.83-19Z"/></g></g></g></g></svg>