<svg xmlns="http://www.w3.org/2000/svg" viewBox="0 0 500 500"><g id="Ebene_2" data-name="Ebene 2"><g id="Ebene_1-2" data-name="Ebene 1"><path d="M236.85.05C273.21-.56,300,4,326.51,12c31.4,9.45,58.93,25.65,84,46.37,5.48,4.53,10.61,9.5,15.73,14.45,33.86,32.75,55.21,72.59,66.58,118.08,4.38,17.5,6,35.29,6.91,53.26,1.79,36.47-5.82,71.07-20,104.4-3.58,8.45-7.92,16.6-12.26,24.7-19.85,37-48.62,65.55-83.59,88.24-30.42,19.73-63.73,31.4-99.53,36.37-18.81,2.6-37.61,2.58-56.51,1.28-44.1-3-83.41-18.89-119.81-43.33a232.35,232.35,0,0,1-59-57.37,330.27,330.27,0,0,1-19.21-30.57C17,345.21,9.59,320.64,4.42,295.18c-6.1-30.05-5.61-60-.24-89.94,3.27-18.26,9.13-35.76,16.05-53C33.62,119,54.52,91,80.41,66.64,106.05,42.5,135.86,25.34,169,13.49,193.84,4.6,219.36.61,236.85.05Zm162,250.33c-.58-23-.83-45.3-1.79-67.6-.76-17.47-5.79-33.65-16.65-47.78a79.22,79.22,0,0,0-46.18-29.64c-12.65-3-25.56-3.52-38.45-3.72-15.15-.24-30.3.15-45.46.3-18.12.17-36.24.2-54.36.62-14.33.34-28.54,1.6-42.18,6.76a75.94,75.94,0,0,0-35.88,27.8c-9.65,13.64-14.17,29.15-15.1,45.62-.74,13-.74,26.15-.8,39.23q-.15,32.06.07,64.12c.13,15.1-.06,30.29,3,45.15,6.51,31.81,24.13,54,56.42,62.34a128.68,128.68,0,0,0,27.76,4.18c24.93.81,49.89,1,74.84,1,18.08,0,36.21.95,54.2-1.9,6.08-1,12.25-1.55,18.21-3,22.91-5.53,40.34-18.53,51.26-39.54a86.29,86.29,0,0,0,9.6-39.61C397.52,293,398.31,271.39,398.83,250.38Z"/><path d="M250.23,372.29q-32.58-.82-65.15-1.67c-7.77-.21-15.38-1.33-22.62-4.42-17.08-7.28-27-20.35-30.73-38.28-2.91-13.95-2.57-28.16-2.83-42.3-.23-12.73-.19-25.46-.16-38.19,0-19-.16-38,.45-56.92a93.82,93.82,0,0,1,3.73-23.22c5.76-19.79,19.55-31.24,39.46-35.55,12.13-2.63,24.49-2.63,36.81-2.89,6.07-.14,12.15-.08,18.22-.12,21.71-.12,43.41-.48,65.11-.28,12.21.11,24.49.15,36.5,3.1,22.18,5.45,37.07,21.24,40.07,43.88a287.66,287.66,0,0,1,2.19,34.36c.31,27.36.26,54.73.05,82.09a287.27,287.27,0,0,1-1.66,32c-1.83,15.25-9.52,27.28-22,36.43A49.54,49.54,0,0,1,321,369.87c-16.74,1.06-33.53,1.34-50.31,1.81-6.82.2-13.66,0-20.49,0Zm-76.4-122.76c-.75,41.6,34.25,77.37,77.33,76.63,43.64-.75,76.18-38,75-76.87-1.26-42.24-35.39-75.85-77.24-75.39C207.67,174.35,173.38,209,173.83,249.53ZM329,188.69c9.57,0,18-8.39,17.88-17.77a18.15,18.15,0,0,0-17.95-18,17.9,17.9,0,0,0,.07,35.79Z"/><path d="M250.81,200.69c25.69-.51,50,24.68,49,50.44-1.06,27.42-23.6,48.47-51.67,48.23-27.83-.25-49-24.82-47.51-52A49.57,49.57,0,0,1,250.81,200.69Z"/></g></g></svg>