<svg xmlns="http://www.w3.org/2000/svg" viewBox="0 0 472.75 527.01"><g id="Ebene_2" data-name="Ebene 2"><g id="Ebene_1-2" data-name="Ebene 1"><path d="M351.55,0c7.47,3.17,15.39,5.59,22.29,9.72,7.81,4.68,12.71,12.41,15.76,21Q426.92,136,464.08,241.25c2.32,6.6,3.89,13.47,5.78,20.23,6.09,21.72,1.92,42.35-6.49,62.6-16,38.51-37,74.07-62.26,107.21-8.72,11.46-19.42,19.91-33.19,24.84q-95,34-189.77,68.43c-2.55.92-5.18,1.64-7.77,2.45H154.94c-8.09-2.69-16.05-5.52-22.52-11.52a50.42,50.42,0,0,1-13.5-20.3q-57.78-162-115.6-324c-9.72-27.28,2.42-52.36,29.79-62.13Q179.39,56.89,325.65,4.68c5.11-1.82,10.4-3.13,15.6-4.68ZM163,518.76c5.6-1.45,11.34-2.5,16.76-4.42q67.29-23.87,134.46-48.06c17.22-6.22,34.24-13,51.32-19.58,7.77-3,12.21-9.1,12.85-17.16.52-6.56.74-13.55-.95-19.8-3.6-13.36-8.75-26.29-12.86-39.52-7.1-22.82-1.33-39.1,18.31-52.68,12.13-8.38,25.94-13.05,39.68-17.9,7.42-2.61,14.94-5.07,22.07-8.35a28.73,28.73,0,0,0,15.35-36c-3.76-11-7.75-22-11.65-32.92q-33-92.67-66.06-185.32c-8.42-23.63-27.93-33-51.53-24.55q-147.09,52.43-294.14,105a48.88,48.88,0,0,0-11.09,5.27C10,133.31,5.36,150.14,12.28,169.53Q51.67,279.83,91,390.12q18.06,50.55,36.1,101.11C133.26,508.32,146.28,518,163,518.76ZM384.55,438c4.08-4.69,7.4-8.28,10.49-12.08,19.11-23.53,34.28-49.57,48.2-76.38,8.68-16.73,17.05-33.64,20.93-52.29.75-3.63.66-7.44,1-11.17l-1.52-.45c-1.05.75-2.07,1.54-3.14,2.27-5.35,3.61-10.37,7.91-16.13,10.63-7.86,3.72-16.28,6.26-24.48,9.26-13.2,4.83-26.5,9.53-37.61,18.53-11.53,9.34-16.69,21.3-12.59,36a280,280,0,0,0,10.23,30.11,75.28,75.28,0,0,1,5,39.27C384.7,433.31,384.72,435,384.55,438Z"/><path d="M240.36,278.55c.09,25-14.94,39.38-35.73,36.59-7.54-1-13.57-4.88-18.26-10.56a70.67,70.67,0,0,1-16.69-45.36c-.14-14,7.39-24.31,19.71-29s25.46-1.91,34.66,8.41C234.71,250.57,239.32,265.1,240.36,278.55Zm-18.11,4.26c-1.16-11.7-4.73-24.39-14.12-34.7-3.7-4.06-8.31-7-14.12-4.46-5.6,2.44-5.79,7.75-5.53,12.73a70,70,0,0,0,12.08,36c4.57,6.77,10,9.28,14.82,7.55S222.64,292.63,222.25,282.81Z"/><path d="M326.76,247.62c0,24.6-14.45,38.6-34.83,36.57-7.76-.77-14-4.65-18.89-10.4A69.67,69.67,0,0,1,256.13,228c-.06-14,7.49-24.37,19.81-29a30.62,30.62,0,0,1,34.63,8.61C321.35,219.77,325.86,234.5,326.76,247.62Zm-17.95,6.26c-1.45-14-4.83-27.31-15.15-37.73-3.55-3.57-8-5.73-13-3.69-5.37,2.17-6.12,7.31-5.85,12.11a71.28,71.28,0,0,0,13,37.82c4.32,6.09,9.16,8.19,13.81,6.5,6.34-2.31,6.78-7.94,7.26-13.47C308.85,254.91,308.81,254.39,308.81,253.88Z"/><path d="M140.56,140.05c.23-17.17,7.35-27.91,19.93-32.64s26.29-1.61,35.27,9.46c11.42,14.07,17.26,30.3,14.92,48.7-1.63,12.83-8.26,22.1-21,25.89-13,3.87-24.16.33-32.78-10C146.32,168.78,141.71,153.72,140.56,140.05Zm52.68,22.56c-1.07-13.93-4.68-26.93-14.45-37.46-3.67-4-8.3-6.56-13.77-4.2s-6,7.74-5.68,12.72a72.09,72.09,0,0,0,12.44,36.43c4.57,6.62,9.56,8.87,14.49,7.14,4.66-1.63,7-6.44,7-14.12C193.26,163,193.25,162.78,193.24,162.61Z"/><path d="M283,396.84c.58,24.61-12.85,38.59-33.33,37.68-8.63-.38-15.51-4.59-20.69-11-11.47-14.24-17.68-30.62-16.21-49,1-12.74,8.39-21.49,20.65-25.6,12.91-4.34,24.27-1,33.24,8.7C277.54,369.37,282.14,384,283,396.84Zm-17.86,7.44c-.13-13.18-7.06-30.74-14.93-37.77-3.88-3.48-8.22-6.06-13.47-3.74s-5.84,7.33-5.58,12.25a70.85,70.85,0,0,0,12.19,36.47c4.65,6.88,9.64,9.18,14.87,7.52C262.72,417.59,265.23,412.26,265.15,404.28Z"/><path d="M413.58,216.3c0,24-12.9,37.57-32.76,36.91a25.74,25.74,0,0,1-18-7.77c-14.44-14.78-21.06-32.83-19.37-53.29,1-12.56,8.89-20.87,20.88-24.8,12.73-4.17,23.93-.86,32.74,8.76C408.05,188.06,412.76,202.76,413.58,216.3Zm-52.11-23C363,208,366.93,221.46,376.09,233c3.11,3.91,7.22,6,12.19,4.72,4.79-1.23,6.66-5.36,7-9.78,1.1-16.64-3.76-31.35-15.39-43.48a15.81,15.81,0,0,0-6.68-3.56,8.22,8.22,0,0,0-10.29,5.26A45.89,45.89,0,0,0,361.47,193.27Z"/><path d="M124.35,186.93c0,22.79-10.57,35.3-28.91,37.09a26.11,26.11,0,0,1-22-7.91C59,201.31,52.49,183.26,54.3,162.77c1-11.64,8.13-19.75,19.17-23.94C84.82,134.52,95.59,136,104.7,144,118.41,156.09,123.07,172.35,124.35,186.93Zm-52-21.38c1.24,12.6,5.09,25.2,13,36.4a21.33,21.33,0,0,0,3.42,3.81c6.84,6,14.62,3.62,16.94-5.1a21.26,21.26,0,0,0,.8-6.08,61.56,61.56,0,0,0-11.72-34.94,25.57,25.57,0,0,0-8-7c-6.23-3.46-12.61-.13-13.93,6.86A57.63,57.63,0,0,0,72.38,165.55Z"/><path d="M249.91,76c8,22.2,15.86,44,23.84,66.2l15-5.17c1.73,4.71,3.36,9.17,5.27,14.35l-47.67,17.2c-1.76-5-3.39-9.56-5.13-14.49l15.24-5.7C250.63,132.06,244.88,116,239,99.53L227.74,106c-5.07-10.61-5.09-10.63,3.94-17.29,5.52-4.06,11.07-8.06,16.62-12.08A11,11,0,0,1,249.91,76Z"/><path d="M366.23,125.44,318.6,142.6c-1.75-5-3.35-9.58-5.06-14.47l15.21-5.64L311.23,73.61l-11.44,6.58c-1.25-3.29-2.58-6.34-3.52-9.5a3.48,3.48,0,0,1,1.17-2.93c7.88-6,15.86-11.84,24.52-18.26L346,116.28,361.08,111C362.81,115.87,364.45,120.44,366.23,125.44Z"/><path d="M116.59,349.21l-5.13-14.48L126.68,329c-5.84-16.3-11.58-32.33-17.49-48.8l-11.44,6.53c-1.2-3.13-2.62-6-3.3-9-.26-1.19.76-3.23,1.83-4.06,7.61-5.83,15.37-11.45,23.61-17.52,8.07,22.39,16,44.36,24,66.67l15-5.13c1.73,4.67,3.43,9.23,5.34,14.36Z"/><path d="M319.35,410.86c-1.78-5.05-3.37-9.52-5.12-14.47l15.25-5.75c-5.89-16.37-11.64-32.39-17.54-48.78L301,348.12c-.45-.39-.81-.55-.92-.81-4.2-9.78-4.21-9.79,4.48-16.21,5.78-4.27,11.59-8.49,18.13-13.27l24,66.61,15.16-5.11c1.74,4.84,3.39,9.43,5.16,14.37Z"/><path d="M152,399.3,140.44,406l-4.16-11.24,26.42-19.44c4.15,11.58,8.09,22.62,12.07,33.66s7.89,21.78,12,33l15-5.2c1.73,4.71,3.39,9.25,5.27,14.39l-47.59,17.17c-1.71-4.72-3.37-9.29-5.23-14.44l15.31-5.75C163.64,431.77,157.87,415.73,152,399.3Z"/></g></g></svg>