<svg xmlns="http://www.w3.org/2000/svg" viewBox="0 0 500 498.76"><g id="Ebene_2" data-name="Ebene 2"><g id="Ebene_1-2" data-name="Ebene 1"><path d="M244,0h11c10.91,1.14,21.88,1.82,32.71,3.49C398.61,20.58,484.37,110.16,497,221.87c.8,7.07,2,14.09,3,21.13v11c-.69,4.41-1.43,8.82-2.07,13.24-1.72,12-2.61,24.22-5.22,36A249.34,249.34,0,0,1,235.09,498.36C119.85,491.82,22.58,405,4,291.11,2.22,280.47,1.3,269.71,0,259V241c.31-2.29.75-4.57.9-6.86,2.37-37.17,12-72.34,30.55-104.66Q92.55,22.8,214.25,3.13C224.08,1.55,234.08,1,244,0Zm42.81,145.68a82.19,82.19,0,0,0-82.54,82c-.09,45.23,36.47,81.78,81.06,82.6,44.25.81,83.85-35.12,83.74-82.39A82.07,82.07,0,0,0,286.81,145.68Zm-106.25.17c-12.83,0-25-.1-37.08.18-1,0-2.7,2.56-2.7,3.94q-.19,105.17-.19,210.33c0,3.69,1.4,4.43,4.69,4.37,9.83-.17,19.66-.29,29.48,0,4.5.15,5.92-1,5.91-5.74q-.24-103.67-.11-207.33Z"/></g></g></svg>