<svg xmlns="http://www.w3.org/2000/svg" viewBox="0 0 7.23 7.23"><g id="Ebene_2" data-name="Ebene 2"><g id="Ebene_1-2" data-name="Ebene 1"><g id="Ebene_2-2" data-name="Ebene 2"><g id="Ebene_1-2-2" data-name="Ebene 1-2"><path d="M7.23,3.8a1.79,1.79,0,0,0,0,.23A3.56,3.56,0,0,1,5,6.94a3.48,3.48,0,0,1-1.56.24,3.61,3.61,0,0,1-1.92-.69l0,0-.79.76L.3,4.7l2.59.36-.71.69a2.61,2.61,0,0,0,2.63.14A2.53,2.53,0,0,0,6.17,3.25h0l1,.2h0Z"/><path d="M5.78.76,6.57,0l.36,2.53L4.34,2.17,5,1.49a2.6,2.6,0,0,0-2.51-.2A2.55,2.55,0,0,0,1.06,4l-.18,0L0,3.78s0,0,0,0a3.51,3.51,0,0,1,1.47-3A3.37,3.37,0,0,1,2.76.14a3.68,3.68,0,0,1,3,.61Z"/></g></g></g></g></svg>