<?xml version="1.0" encoding="utf-8"?>
<!-- Generator: Adobe Illustrator 25.2.1, SVG Export Plug-In . SVG Version: 6.00 Build 0)  -->
<svg version="1.1" id="Ebene_1" xmlns="http://www.w3.org/2000/svg" xmlns:xlink="http://www.w3.org/1999/xlink" x="0px" y="0px"
	 viewBox="0 0 496.6 496.8" style="enable-background:new 0 0 496.6 496.8;" xml:space="preserve">
<style type="text/css">
	.st0{fill:none;}
	.st1{fill-rule:evenodd;clip-rule:evenodd;}
</style>
<path class="st0" d="M-0.8-0.8h497.5v497.5H-0.8V-0.8z"/>
<path class="st1" d="M406,315.6c-17.3,0.3-30.1,5.1-43.4,9.5c-3.7,1.2-7.5,2.1-11.1,3.1c-1.6,0.5-3.4,0.2-4.1,1.5
	c-0.8,1.3-0.1,3.1-0.5,4.9c-0.3,1.4-0.9,3.5-1.3,4.6c0,0.8,0,1.5,0,2.3c-0.4,0.8-1.5,1.8-1.8,2.8c-0.1,1.4-0.2,2.7-0.3,4.1
	c-0.5,2.2-1.2,4.7-1.8,6.9c0,0.8,0,1.5,0,2.3c-0.3,1.1-1.2,2.3-1.5,3.3c-0.9,2.9-1.5,5.9-2.3,8.5c-0.1,1.3-0.2,2.6-0.3,3.9
	c-0.3,1.1-0.4,2.8-0.8,4.1c-0.6,1.9-1.8,4-2.3,5.9c-0.1,1.2-0.2,2.4-0.3,3.6c-1.5,4.7-4.6,8.9-6.7,13.1c-2.4,4.8-3.6,10.1-6.2,14.6
	c-0.7,1.2-1.9,2.9-2.8,4.1c-0.9,1.1-2.5,1.9-3.3,3.1c-0.5,0.7-0.4,1.6-1,2.1c-1.1,0.9-2.7,1.4-3.6,2.6c-1.1,1.5-1.4,3.4-2.6,4.9
	c-0.4,0.5-1.4,0.8-1.8,1.3c-0.9,1-1.3,2.3-2.1,3.3c-1.1,1.5-2.8,2.9-3.9,4.4c-0.5,0.7-0.5,1.7-1,2.3c-1.1,1.3-2.9,2.5-3.9,3.9
	c-1.1,1.7-1.6,3.5-2.8,5.1c-0.6,0.8-1.7,1.7-2.3,2.6c-0.9,1.4-0.9,2.8-1.8,4.4c-0.4,0.4-0.9,0.9-1.3,1.3c-0.3,1-0.7,2.1-1,3.1
	c-0.5,0.5-1,1-1.5,1.5c-0.5,1-1,2-1.3,2.8c0,0.4,0,0.9,0,1.3c-0.4,0.8-1.9,1.3-2.3,2.1c-1.1,1.8-0.9,4-1.8,5.9c-0.3,0.5-1,0.6-1.3,1
	c-0.5,0.8-0.3,1.7-0.8,2.6c-0.7,1.3-4.9,5.3-6.2,6.2c-0.4,0-0.9,0-1.3,0c-0.5,0.3-1.5,1.3-2.1,1.5c-0.9,0-1.9,0-2.8,0
	c-3.5,0.7-7.1-0.7-11.1-0.8c-0.9,0-1.5,0.4-2.1,0.5c-2.7,0-5.5,0-8.2,0c-1,0.2-3.6,1.1-5.1,0.5c-0.2-0.3-0.3-0.5-0.5-0.8
	c-1.2,0.1-3.5,0.2-4.9-0.5c-4.2-2.1-8.5-4.2-12.1-6.9c-0.8-0.6-0.8-1.7-1.3-2.3c-0.2,0-0.3,0-0.5,0c-0.5-0.5-1.3-1.7-1.5-2.3
	c-0.7-1.8,0.2-4-0.5-5.7c-0.1-0.2-0.7-0.4-0.8-0.5c-0.1-0.7-0.2-1.4-0.3-2.1c-0.3-0.3-0.7-0.7-1-1c-0.3-1.1-0.5-2.2-0.8-3.3
	c-0.3-0.7-1.2-1.2-1.5-1.8c-0.8-1.2-0.8-2.4-1.5-3.6c-1.3-2.3-3.8-4.2-5.1-6.4c-0.3-0.6-0.1-1-0.5-1.5c-4.4-6.1-9.6-11.7-14.6-17.2
	c-0.8-0.9-1.1-2.1-1.8-3.1c-0.9-1.3-2.5-2.5-3.3-3.9c-1-1.4-1.2-3.1-2.3-4.4c-3.3-3.9-6.6-8.4-9.3-12.8c-1.7-2.9-3-6.3-4.1-9.5
	c-0.1-0.9-0.2-1.9-0.3-2.8c-0.5-1.3-2.2-2.7-2.8-4.1c-1.1-2.3-0.8-4.5-1.8-6.9c-1.6-4-4-8.6-5.4-12.8c-1.5-4.9-2.3-9.8-4.1-14.4
	c-0.9-2.4-0.4-5.3-1.3-7.7c-0.3-0.3-0.5-0.5-0.8-0.8c0-0.6,0-1.2,0-1.8c-0.1-0.4-0.7-1.3-0.8-1.5c0-0.6,0-1.2,0-1.8
	c-0.5-1.2-1.6-2.7-2.1-3.9c-0.6-1.6-0.4-2.9-1-4.4c-1.3-3-4-6.7-4.9-9.8c0-0.9,0-1.9,0-2.8c-0.2-0.8-1.1-2-0.8-3.1
	c0.2-0.7,0.7-0.8,0.8-2.1c-2.1-0.4-3.7-1.8-5.4-2.6c-4.5-2.1-9.1-4.1-13.9-5.7c-3.4-1.1-7.1-1.2-10.8-2.1c-3.5,0-7,0-10.5,0
	c-4.5-0.5-9.1-1-13.6-1.5c0-0.6,0-1.2,0-1.8c0.9-0.6,1.2-1.7,2.1-2.3c3.3-2.5,6.4-5.2,9.8-7.7c1.6-1.6,3.3-3.3,4.9-4.9
	c5.8-4.2,14.2-5.3,20.3-9.3c3.5-2.3,5.1-6,7.5-9.5c2.2-3.3,5.5-5.9,7.7-9.3c3.4-5.2,4.4-12.1,6.9-18.2c2-4.9,4.5-10.1,6.4-15.2
	c2-5.2,2.6-10.5,4.4-15.9c2.7-8.3,5.1-17.4,7.5-26c3.8-13.8,5-29.2,10.3-41.6c4-9.4,11.7-15.2,15.7-24.4c2.6-5.9,2.1-15.1,5.7-20
	c5.9-8.4,16.9-16.6,19.8-27.5c1.6-6.3-1.1-15.5-2.6-20.6c-1.4-4.9-2.3-10-3.6-14.6c-0.8-2.9-0.7-5.7-1.5-8.2
	c-0.1-1.7-0.2-3.4-0.3-5.1c-1.1-4.3-1.4-11.7-0.5-16.2c1.2-0.4,1.8-0.8,3.6-0.8c1.3,1.6,3.4,2.4,4.6,4.1c3.1,4.6,6,9.7,9.8,13.6
	c10.6,11,22.4,20.2,35.5,28.8c8.7,5.7,18.5,10.2,27.2,15.7c4.9,3,10.2,5.8,13.4,10.5c3.1,4.6,3,10.2,4.6,16.4c0,1.5,0,2.9,0,4.4
	c0.9,3.9,0.7,8.1,2.1,11.6c1.9,4.6,5,7.6,7.7,11.3c2.1,2.9,4.1,6.2,5.9,9.3c1.5,2.6,1.9,5.5,3.1,8.5c2.9,7.1,4.8,15.8,6.9,23.4
	c2.7,9.5,1.8,20.9,4.1,30.8c0.2,2.7,0.3,5.3,0.5,8c1.5,6.4,1.4,13.4,3.1,19.8c1.7,6.2,3.6,12.7,5.4,18.8c0.7,2.2,0.4,4.1,1,6.4
	c1.3,4.7,2.3,9.6,4.1,13.9c1,2.4,2.7,4.8,4.1,6.9c1.4,2.1,2.2,4.3,3.6,6.4c5.7,8.4,14,16.4,23.1,21.3c7,3.8,11.6,7.8,17.2,12.8
	C403.4,311.3,405.9,312.4,406,315.6z"/>
</svg>
