<?xml version="1.0" encoding="utf-8"?>
<!-- Generator: Adobe Illustrator 25.2.1, SVG Export Plug-In . SVG Version: 6.00 Build 0)  -->
<svg version="1.1" id="Ebene_1" xmlns="http://www.w3.org/2000/svg" xmlns:xlink="http://www.w3.org/1999/xlink" x="0px" y="0px"
	 viewBox="0 0 496.6 496.8" style="enable-background:new 0 0 496.6 496.8;" xml:space="preserve">
<style type="text/css">
	.st0{fill:none;}
	.st1{fill-rule:evenodd;clip-rule:evenodd;}
</style>
<path class="st0" d="M-0.8-0.8h497.5v497.5H-0.8V-0.8z"/>
<g>
	<g>
		<path class="st1" d="M23.3,69.1C4.4,97.6,8.6,150.9,8.6,198.1c0,43,0,86,0,129c0,10.6,0,21.2,0,31.8c0,5.2-0.6,11.7,0.4,16.3
			c0.1,3.5,0.3,7.1,0.4,10.6c2.4,11,3,21.7,6.8,31c9.8,23.9,27.6,39.3,61.7,39c0-2.5,0-5,0-7.6c-8.8,0-13.9-2.8-18.9-6.4
			c-19.9-14.4-16.3-48.5-16.3-82.5c0-73.9,0-147.8,0-221.6c0-43-4.2-81.5,35.2-85.9c0-2.5,0-5,0-7.6c-7.2,1.4-14.7,0.5-21.2,2.3
			C42.2,50.4,30.6,58.1,23.3,69.1z M488.9,326.3c0-42.5,0-85,0-127.5c0-48.5,4.2-102.7-15.9-131.2c-7.3-10.3-18.6-17.1-32.1-21.2
			c-6.4-1.9-14-1-21.2-2.3c-0.6,1.8-0.4,5.1-0.4,7.6c38.4,2.4,35.6,42.6,35.6,83.6c0,75,0,150,0,225c0,32.4,3.1,66.8-15.5,80.6
			c-5.3,3.9-10.3,7.2-19.7,7.2c-0.1,0.1-0.3,0.3-0.4,0.4c0,2.4,0,4.8,0,7.2c35.9,0,52.4-15.8,62.8-41.2c3.2-7.8,3.7-17.2,5.7-26.1
			c0.3-5,0.5-10.1,0.8-15.1c1-4.4,0.4-10.8,0.4-15.9C488.9,347,488.9,336.7,488.9,326.3z M371.7,301c-2.9-2.5-5.5-5.7-8.7-7.9
			c-2.7-1.9-5.9-3-8.7-4.9c-9.1-6.4-16.1-15.8-21.2-26.1c-2.4-4.9-2-10.6-3.8-16.3c-1.4-4.4-2.9-9.5-4.2-14
			c-0.9-5.3-1.8-10.6-2.6-15.9c-0.1-2.3-0.3-4.5-0.4-6.8c-1.8-7.4-0.7-15.5-2.6-23.1c-2.4-9.3-5-24.1-9.5-31.4
			c-3.2-5.3-8.5-9.8-10.6-15.9c-2.7-7.7-0.4-17.8-4.2-25c-4.9-9.2-25-17.5-34.4-23.5c-8.9-5.7-21.8-15.2-28-23.5
			c-3.7-5-7.1-10-11.3-14.4c-4.2,0.6-2.8,11.6-1.9,15.5c0.9,4,1.1,8.3,2.3,12.5c2.3,8.2,7.5,22.5,2.3,31
			c-4.1,6.7-10.7,11.9-14.8,18.5c-1.9,3.1-1.1,7.3-2.3,11.3c-0.7,2.5-2,5.7-3.4,7.9c-4.1,6.7-9.3,11.7-12.1,20
			c-3.3,9.8-3.8,20.4-6.8,30.6c-4.6,15.3-8.6,31.7-14.4,45.4c-2.3,5.4-2.8,11.2-5.7,15.9c-1.3,2.1-3.5,3.7-4.9,5.7
			c-2.6,3.5-4.2,7.9-7.9,10.2c-4.8,3-11.1,3.6-15.5,6.8c-4.8,3.5-8.8,8.8-13.6,12.5c0,0.3,0,0.5,0,0.8c3.3,0.7,7.5,0.8,11,1.5
			c3.3,0,6.6,0,9.8,0c7.5,1.7,17.1,4.3,22.3,8.3c1.3,1.8,0.7,5.5,1.9,8.3c2.2,5.3,3.9,11.8,6.1,17.4c0.3,1.9,0.5,3.8,0.8,5.7
			c1,3.4,1.7,7.4,3,11c2,5.5,4.7,12.7,8.3,17.8c0.8,1.1,2.6,1.9,3.4,3c1.5,2.3,2.1,5.2,3.4,7.6c1.8,3.2,4.8,6.1,6.8,9.1
			c1.7,2.5,2.5,5.4,4.2,7.9c3.3,5,8,9.8,10.6,15.5c1.4,3.1,2,5.9,3.4,9.1c1.1,2.5,3.4,5.5,4.5,7.9c3.6,7.8,0.4,12.7,7.9,18.2
			c7.5,5.4,13.4,5.8,23.1,3.4c2.2-0.5,4.7,1,6.4,1.5c0.8,0.2,1.7-0.3,1.9-0.4c1.6-0.3,3.7,0.8,4.9,0.4c0.7-0.2,4.1-2.1,4.9-2.6
			c7.1-4.9,10.1-19.6,13.6-27.2c5.5-12,13.4-22.7,22.3-31.4c0-0.3,0-0.5,0-0.8c-4.4,1.2-10,7.1-12.5,10.6c-1.8,2.5-5.7,4.3-7.9,6.4
			c-0.8,0.7-0.8,2.3-1.5,3c-0.8,0.8-2.1,1.2-3,1.9c-0.5,0.8-1,1.5-1.5,2.3c-3.5,2.5-6.5,4.9-9.1,8.3c-2.4,3.3-10.3,11.5-15.1,8.3
			c-1.8,0-2.1-0.2-2.6,1.1c-0.3,0.4-0.1,0.1-0.4,0.8c2.5,2.6,4.7,5.4,7.2,7.9c-0.3,0.4-0.7,1.1-1.1,1.5c-1.3,1-4.1,0.8-6.4,0.8
			c0.2,0.7,0.1,0.4,0.4,0.8c0.6,0.4,1.2,0.2,1.5,0.4c0.3,0,0.5,0,0.8,0c-1,1.7-8.7,1.1-10.2,0.4c-2.4-0.1-1.5-0.5-2.6-1.5
			c-0.7-0.6-1.8-0.2-2.6-0.8c-1.7-1.1-1.8-4-3-5.7c-0.5-0.3-1-0.5-1.5-0.8c-0.9-1.1-2.1-3.4-2.6-4.5c-0.1-1.1-0.3-2.3-0.4-3.4
			c-1.1-2.6-2.1-5.9-3.4-8.7c-2.8-6.4-8.1-12-12.1-17.4c-4.6-6.3-8.3-12.9-12.5-19.7c-1.5-2.4-4-5-5.3-7.6c-1.1-2.2-0.3-4.2-0.8-6.1
			c-0.1-0.3-1-1.5-1.1-1.9c-2.6-9.1,3.2-16.6,9.1-18.5c1.6-0.9,4.7,2.2,6.1,3c-0.6,3.3-1.3,6.6-1.9,9.8c0.2,6.2,1.6,12.5,3.4,17.4
			c0.3,1.3,0.5,2.5,0.8,3.8c0.9,0.9,1.8,1.8,2.6,2.6c1.6-0.1,1.7-0.3,2.6-0.8c-0.3-8.3-6.8-23.5-1.5-30.3c0.1-0.4,0.3-0.8,0.4-1.1
			c3.9,0.3,8.9,1.1,11.7-1.1c0.4-0.4,0.8-0.8,1.1-1.1c0-3.7-1.6-3.3-3.4-4.9c-3.2,0.2-6.5,0.8-10.6,0.8c0.1-2.6,1-8.9,0.4-9.8
			c0-0.3,0-0.5,0-0.8c3.9,0.5,13.2,5,15.1,7.6c1.3,1.7,2,4.1,3.4,5.7c-0.1,2.5-1.3,3.7-2.6,4.9c0.2,4.1,2.9,3.1,5.3,4.9
			c0.6,0.5,0.8,1.4,1.5,1.9c0.1,0.9,0.1,1.1,0.4,1.5c-0.9,5.1-8.1,6.7-8.7,13.6c-0.1,0.8,1,1.9,1.1,2.3c0.3,1.1,0.5,2.3,0.8,3.4
			c0.6,1,5.6,7.3,6.4,7.9c1.2,0.9,2.4,1.3,3.4,2.3c1.2,1.2,2.3,3.6,3.8,4.5c1.9,1.2,5,1.4,6.4,3c1.6-0.1,1.8-0.5,3-0.8
			c0.7-3.4-1.4-6.4-0.4-10.2c0.6-2.3,2.4-3.6,3-5.3c0.8-2.2-0.9-4.1-1.1-5.3c-0.3-1.5,0.3-5.2,0-6.8c-0.2-1.3,0.4-3.5,0.4-5.3
			c0-7.6,0.3-10.1,0.4-17.4c-3.8-3.5-9.6-4.3-14-7.2c-3.1-2-6.1-5-9.1-7.2c-3.8-2.7-8.7-4.9-11.3-8.7c-0.3,0-0.5,0-0.8,0
			c0-0.1,0-0.3,0-0.4c16.8,0.8,37.5,5.6,55.2,1.5c3.6-0.8,7.9,0.2,10.6-1.5c0.3,0,0.5,0,0.8,0c0,0.1,0,0.3,0,0.4
			c-9.7,3.6-20.7,8.3-25.7,16.3c-0.4,1.4-0.8,2.8-1.1,4.2c0.1,1,0.2,1.3,0.4,1.9c2.8-0.5,4.4-2.2,6.4-3.4c5.2-3.1,12-6.5,18.9-6.4
			c0.2,3.2,1.3,6.8-0.8,9.5c0,0.3,0,0.5,0,0.8c-5.6,0.1-8-1-11.7-2.3c-0.3,0.3-0.5,0.5-0.8,0.8c-0.1,7.9,8.7,8.2,14.4,8.3
			c0.2,3,1.9,5.8,1.9,8.3c-0.1,8.4,0.2,20.7-4.5,26.9c0,0.3,0,0.5,0,0.8c1.8,0,2.5-0.3,3.4-1.1c1.9,0.2,1.9,0.7,3,1.5
			c-0.9,1.3-11,8.9-12.5,9.5c-3.2-0.6-6.4,1.5-9.1,2.6c-1.3,0.5-1.8-0.3-2.6,0c-1.1,0.4-2.9,1.8-4.2,2.3c-2.3,0.8-3.6,0.3-5.7,1.1
			c-1.5,0.6-4,2.3-5.7,2.6c-3,0.7-5.9-3.2-8.7-3c-5.2,0.4-19.4-7.2-22.7-11.3c-1.6-2-2.6-4.1-4.2-6.1c-0.8-0.9-2.7-0.6-3.4-1.5
			c-4.3-5.5-9.4-9.9-13.2-15.9c-0.3,0-0.5,0-0.8,0c-0.1,0.1-0.3,0.3-0.4,0.4c0.9,7.7,5.9,8.7,8.7,13.6c0.1,0.6,0.3,1.3,0.4,1.9
			c0.8,0.8,1.5,1.5,2.3,2.3c0.5,1,0.2,1.8,0.8,2.6c0.8,0.6,1.5,1.3,2.3,1.9c0,0.5,0,1,0,1.5c1.3,2.3,4.9,3.8,6.4,6.1
			c1.5,2.2,2.2,4.4,3.8,6.4c0.4,0.1,0.8,0.3,1.1,0.4c1.1,1.1,1.7,2.5,2.6,3.8c1.1,0.9,2.3,1.8,3.4,2.6c2.2,2.9,4.7,7.8,7.9,9.5
			c2.5,1.3,6.2,0.4,9.8,0.4c7.2,0,13,1.3,18.2-1.9c5.2-3.3,7.9-10.1,11.7-14.8c1.5-1.8,5-1.9,6.8-3.4c0.7-0.6,1.6-3.5,3-4.5
			c0.9-0.6,1.8-0.5,2.6-1.1c2.6-2,4.5-4.9,6.4-7.6c0.5-0.7,1.7-0.9,2.3-1.5c1.3-1.3,1.4-3.1,2.3-4.9c1.8-3.8,4.9-9,8.3-11.3
			c0.1-2.3-1.1-4.3-3-3c-3,1.1-2.8,5.9-4.2,8.7c-2.2,4.6-7.2,6.7-9.8,11c-1.3-0.3-1-0.5-1.9-1.1c0.4-2.7,2.3-4.3,3-6.8
			c1.4-4.7,1.6-15.7,0.8-19.3c-0.7-2.9,0.9-4.9-1.1-7.2c0-5.9,5.7-3.8,8.7-6.4c1.1-1,1.6-2.8,2.6-3.8c-0.2-2.6-1.2-2.6-2.3-4.2
			c-3.8,0-6.2,2-8.3,3.8c-1.3-0.8-1-5.2-3.8-7.2c1.1-1.7,4.5-0.9,6.8-1.5c4.6-1.2,10.3-2.2,14-4.5c2.3-1.4,6-4.2,7.6-6.4
			c1.2-1.8,1.7-4.1,3.4-5.3c0.8-0.1,1.5-0.3,2.3-0.4c0.3-0.6,0.5-1.3,0.8-1.9c2.2-1.5,9.7-2.4,12.9-3.4c10.4-3.4,20-6.9,33.7-7.6
			C374.8,303.3,373,302.2,371.7,301z M212.8,334.7c-0.7,1.8-0.2,4.2-1.1,5.7c-1.5,0.9-6.4-3.3-7.6-4.5c-1.4,0.1-1.3-0.2-1.9,0.8
			c-1.3-0.6-7.8-10.8-7.9-12.9c7.1,1.5,11.6,7.3,20,8.3C214,333.1,213.1,333.7,212.8,334.7z"/>
	</g>
</g>
</svg>
