<?xml version="1.0" encoding="utf-8"?>
<!-- Generator: Adobe Illustrator 25.2.1, SVG Export Plug-In . SVG Version: 6.00 Build 0)  -->
<svg version="1.1" id="Ebene_1" xmlns="http://www.w3.org/2000/svg" xmlns:xlink="http://www.w3.org/1999/xlink" x="0px" y="0px"
	 viewBox="0 0 496.6 496.8" style="enable-background:new 0 0 496.6 496.8;" xml:space="preserve">
<style type="text/css">
	.st0{fill:none;}
	.st1{fill-rule:evenodd;clip-rule:evenodd;}
</style>
<path class="st0" d="M-0.8-0.8h497.5v497.5H-0.8V-0.8z"/>
<g>
	<g>
		<path class="st1" d="M400.5,307.2c-0.9-0.7-1.5-1.7-2.4-2.4c-2.1-1.7-4.2-3.6-6.4-5.2c-3.1-2.3-6.7-3.8-10.1-5.9
			c-7.7-4.8-15.3-11.8-20.3-19.4c-1.1-1.7-1.8-3.5-3-5.2c-1.8-2.7-3.7-5.7-5-8.7c-1.9-4.3-2.7-9.2-4.1-14.1
			c-0.6-1.9-0.4-3.6-0.9-5.5c-0.9-3.3-2.1-6.9-3.1-10.1c-1-3.2-1.4-6.5-2.4-9.6c-0.1-1.1-0.3-2.3-0.4-3.4
			c-1.2-4.5-1.4-10.1-2.5-14.8c-0.1-2-0.3-4-0.4-6.1c-0.6-2.4-0.5-5.5-1-8v-2.2c-1.3-5.6-0.7-12.2-2.4-17.5c-0.4-1.4-0.1-2.6-0.4-4
			c-1.8-6.8-3.4-13.8-5.6-20.3c-1.5-4.4-2.2-8.8-4.1-12.7c-1.1-2.1-2.3-4.3-3.6-6.4c-0.4-0.7-1.2-1.4-1.6-2.1
			c-0.9-1.4-1.6-2.9-2.7-4.1c-1.4-1.7-3.1-3.3-4.3-5.2c-1-1.4-1.5-3.3-2.4-4.7c-0.4-0.7-0.2-1.5-0.4-2.4c-0.3-1.1-0.7-2.6-1-3.8
			v-1.5c-0.6-2.1-0.4-4.7-0.9-7v-1.8c-0.4-1.6-0.2-3.6-0.6-5.5c-0.7-3.2-1.4-6.6-2.8-9.2c-3.1-5.6-8.8-9.2-14.3-12.4
			c-0.7-0.4-1.5-1.2-2.2-1.6c-0.4-0.1-0.9-0.3-1.3-0.4c0-0.1-0.1-0.3-0.1-0.4c-0.5-0.3-0.9-0.2-1.3-0.4c-0.7-0.5-1.5-1.1-2.2-1.5
			c-0.4-0.2-0.7-0.1-1-0.3c-4.5-2.9-9.6-5.4-14.1-8.3c-0.4-0.1-0.9-0.3-1.3-0.4c-1.8-1.2-3.8-2.5-5.6-3.8c-0.4-0.3-0.9-0.1-1.3-0.4
			c-2.5-2-5.5-3.7-8-5.8c-0.7-0.6-1.7-0.7-2.4-1.3c-3.1-2.7-6.4-5.2-9.8-7.7c-0.5-0.3-0.7-1.1-1.2-1.5c-1.3-1.1-2.7-1.9-3.8-3.1
			c-1.1-1.1-2-2.6-3.4-3.4v-0.4c-1.3-0.3-4.3-4.6-5.3-5.8c-2.6-3-5.3-6.2-7.5-9.5c-1.4-2-2.5-4.4-4.4-5.8h-0.6
			c-0.3-0.1-0.6-0.6-0.9-0.7c-0.2,0.1-0.9,0.1-1,0c-0.2,0.1-1.6,0.5-1.5,1.2c-0.1,0-0.3-0.1-0.4-0.1c0.1,0.6-0.2,1.3-0.1,1.9
			c0.1,1.2,0.1,2.6,0.1,4.6v2.8c0.4,1.6-0.2,3,0.3,4.6c0.9,3,0.9,6.2,1.6,9.2c0.4,1.7,0.5,3.2,0.9,4.7c0,0.6,0.1,1.2,0.1,1.8h0.3
			c0.6,1.1,0.1,2.5,0.6,3.7c0.7,1.8,0.8,3.5,1.5,5.8c1.7,5.8,4.7,16.5,3.7,22.3v2.1c-1,4.6-2.7,9-5.9,11.8c0.1,0.1-1.6,2.5-1.9,3
			c-0.3,0.4-1,0.7-1.3,1.2c0,0.2-0.1,0.4-0.1,0.6c-0.1,0.1-0.5,0.2-0.6,0.3c-2.2,2.7-4.2,5.4-6.4,8.1c-1.3,1.7-3.2,3.2-4.3,5
			c-3,5.1-2.7,13.6-5.2,19.2c-4,9.1-11.4,14.8-15.5,24.3c-4.3,9.9-5.4,22-8.7,33c-0.2,1.2-0.4,2.4-0.6,3.6c-0.4,1.3-0.8,3-1.2,4.3
			c-0.1,0.7-0.2,1.5-0.3,2.2c-1.1,3.1-1.5,6.5-2.7,9.8c-2.4,7.1-4,14.8-6.4,21.9c-0.8,2.6-1,4.9-1.9,7.4c-2.2,6.1-4.8,12.1-7.2,17.9
			c-2.6,6.3-3.7,13.2-7.2,18.5c-2.1,3.1-5,5.6-7.1,8.6c-2.5,3.5-4.1,7.3-7.7,9.8c-5.6,3.8-13.7,4.8-19.2,8.6c-2,1.4-3.5,3.4-5.3,4.9
			c-3.1,2.5-6.1,4.9-9.2,7.4c-1.4,1.1-2.4,2.9-3.8,3.8v0.6c2.6,0.2,5.6,0.7,8.1,1.2c0.3,0.1,1-0.2,1.3-0.1c1.4,0.2,2.8,0.3,4.4,0.6
			c1.2,0.2,1.9-0.3,3.1-0.1c3.1,0.5,7.4,0,11.1,0.9c0.6,0,1.3,0.1,1.9,0.1c4.7,1.3,9.3,2.4,13.5,4.3c0.9,0.4,2,1.2,3,1.6
			c1.8,0.8,3.4,1.6,5,2.4c1,0.5,2.4,0.6,3.1,1.3c0.1,0.1,0.5,1.4,0.6,1.8c-0.1,0.2-0.5,0.7-0.3,1.3c0.2,0.4,0.7,1,0.9,1.5
			c0.1,1.3,0.3,2.6,0.4,3.8c0.8,2.6,2.4,5,3.1,7.5c0.7,2.4,0.9,4.9,2.1,7c0.7,1.3,0.7,3.5,1.6,4.1c-0.2,0.1,0,0.1-0.3,0.1
			c0.1,0.7,0.5,1.6,0.7,2.2v1.5c0.2,0.5,0.8,1,0.9,1.6c0.4,2.4,0.8,5.4,1.6,7.4c0,0.5,0.1,1,0.1,1.5c0.1,0.1,0.3,0.2,0.4,0.3
			c0,0.2-0.1,0.5-0.1,0.7c0.2,0.8,0.4,1.9,0.6,2.5c0.2,0.7,0.8,1.6,1,2.2v1c0.1,0.3,0.2,1,0.4,1.5c0.1,0.1,0.3,0.3,0.4,0.4
			c0,0.3-0.1,0.6-0.1,0.9c0.2,0.6,0.7,1.3,0.9,1.8c0,0.6,0.1,1.3,0.1,1.9c0.1,0.2,0.6,0.7,0.7,0.9c0.2,0.4,0,0.9,0,1h0.3
			c0,0.1-0.1,0.5,0,0.9c0.1,0.3,0.6,0.6,0.7,0.9v0.9c0.2,0.6,0.8,1.5,1,2.2c0.1,0.1-0.3,0.3-0.1,0.6c0,0,0.7,0.5,0.7,0.6v0.9h0.3
			c0.3,0.5,0.3,1,0.6,1.5c0.2,0.1,0.4,0.2,0.6,0.3c0.4,0.5,0.1,0.6,0.4,1.2c0.3,0.2,0.6,0.5,0.9,0.7c0.6,1,0.6,2,1.2,3
			c0.3,0.3,0.7,0.6,1,0.9c0.5,0.9,0.8,1.7,1.3,2.5c0.3,0.5,1,0.7,1.5,1c0.2,0.2-0.1,0.7,0.3,1c0.2,0,0.5,0.1,0.7,0.1v0.1
			c0.3,0.2,0.4,0.7,0.7,0.9c0.2,0,0.4,0.1,0.6,0.1c0,0.3,0.1,0.6,0.1,0.9c0.5,1.2,1.4,2.6,1.9,3.7c0.2,0.5,0,0.8,0.3,1.2
			c0.3,0.3,0.7,0.7,1,1c0.2,0.4,0,0.8,0.3,1.2c0.1,0.2,0.6,0.2,0.7,0.4c0.1,0.2,0,1,0.3,1.5c0.6,0.9,1.6,1.7,2.2,2.5
			c0.1,0.3,0.2,0.7,0.3,1c0.2,0.4,1,0.5,1.2,0.9c0,0.3,0.1,0.7,0.1,1h0.3c0.4,0.6,0.3,1.2,0.7,1.8c0.4,0.3,0.8,0.7,1.2,1
			c0.4,0.6,0.6,1.2,1,1.8c0.2,0.1,0.5,0.3,0.7,0.4c0.4,0.5,0.3,1.3,0.7,1.8c0.4,0.4,1.2,1.2,1.5,1.8v0.7c0.2,0.1,0.4,0.2,0.6,0.3
			c0.1,0.6,0.3,1.3,0.4,1.9c0.3,0.1,0.3,0,0.4,0.1c0.7,0.3,1.6,2.5,2.1,3.3c0.2,0.3,0.7,0.5,0.9,0.7c0.7,1.1,1.1,2.1,1.8,3.1
			c0.8,1.1,2.2,2,2.8,3.3v0.7c0.2,0.3,0.7,0.4,0.9,0.6c0.2,0.3,0.1,0.7,0.3,1c0.3,0.6,1.3,1.5,1.8,2.1c0.5,0.7,0.9,1.9,1.3,2.7
			c0.2,0.2,0.5,0.4,0.7,0.6c0.1,0.4,0.2,0.9,0.3,1.3c0.1,0.1,0.5,0.1,0.6,0.3c0.3,0.4,0.3,1.1,0.6,1.5c0.1,0.1,0.5,0.3,0.6,0.4
			c1.2,2.1,1.6,4.6,2.8,6.7c0.1,0,0.3,0.1,0.4,0.1c0,0.5,0.1,1.1,0.1,1.6c0.3,0.9,1.3,1.9,1.6,2.7c0,0.4,0.1,0.9,0.1,1.3
			c0.1,0,0.3,0.1,0.4,0.1c0,0.3,0.1,0.7,0.1,1c0.1,0.1,0.5,0.1,0.6,0.3c0.2,0.4,0.1,0.8,0.3,1.2c0.3,0.6,0.9,1.3,1.2,1.9
			c0.2,0.6,0.1,1.1,0.4,1.6c0.1,0,0.3,0.1,0.4,0.1c0.4,0.8,0.4,1.6,0.9,2.4c0.2,0.3,0.8,0.6,0.9,0.9c0.2,0.5-0.3,1.1-0.1,1.3
			c0.1,0,0.3,0.1,0.4,0.1c0.3,0.5,0,1,0.3,1.6c0.2,0.4,0.9,0.9,1,1.3c0,0.2-0.1,0.4-0.1,0.6c0.2,0.8,0.9,2.5,1.5,3
			c-0.1,0.3-0.2,1-0.4,1.3c0.1,0.6,0.1,0.6,0.4,0.9c-0.5,1.4-0.3,3.4,0.6,4.6c0.2,0.3,0.7,0.3,0.9,0.6c0.3,0.4-0.3,0.5,0,1
			c0.3,0.6,1.4,1.2,1.9,1.6c0.5,0.5,0.8,1.2,1.3,1.8c0.2,0.2,0.5,0.1,0.7,0.3c0.2,0.3,0.4,0.7,0.6,1h0.6c0.2,0.1,0.3,0.6,0.4,0.7
			h0.6c0.3,0.2,0.5,0.7,0.7,0.9h0.4c0.5,0.3,1.4,1,1.9,1.2c0.3,0.1,0.7,0,1.2,0.3c0.2,0.2,0.2,0.7,0.4,0.9h0.6
			c0.3,0.2,0.6,0.8,0.9,0.9h1.2c0.1,0.3,0.3,0.6,0.4,0.9h0.7c1.2,0.4,3,1.1,4,0.4c0.3,0.5,0.7,0.7,0.9,1.2c2.1-0.2,3.4-0.6,5.2-1
			c0.9-0.2,1.8,0.5,2.7,0c0-0.1,0.1-0.3,0.1-0.4c0.6,0.5,0.8-0.1,1.3,0c0.3,0.1,1,0.4,1.2,0.4c0.5,0.1,1.2-0.3,1.5-0.4
			c0.4,0.2,1.7,0.1,2.5-0.3c0.2-0.1,0.5-0.5,0.7-0.6c0.9-0.2,1.8,0.6,2.4,0.7c0.5,0.1,0.5-0.2,0.6-0.3c0,0,2.4,0.1,2.4,0.1
			c0.9,0.2,1.8,1,2.5,1.2c0.9,0.2,1.9-0.3,2.5-0.4c0.7-0.2,1.5,0.3,1.9,0.4c0.4,0.1,1.2-0.1,1.3-0.1c1,0,1.5-0.7,2.1,0
			c1-0.1,2.5-0.9,3.3-1.5c0.1-0.1,0.2-0.3,0.3-0.4h1c0.4-0.2,0.6-0.7,0.9-0.9h0.7c0-0.2,0.1-0.4,0.1-0.6c0.2-0.2,0.7-0.2,0.9-0.4
			c0.1-0.2,0.1-0.1,0.1-0.4c0.9-0.1,0.8-0.6,1.6-0.7c0.3-1.7,1.4-1.2,1.9-1.9c0-0.2,0.1-0.5,0.1-0.7c0.3-0.5,1.1-0.9,1.3-1.3v-1.2
			c0.2-0.6,0.9-1.3,1.2-1.9h0.6c0.2-1.5,1.1-2.9,1.6-4c0.5-1.2-0.1-2.4,0.4-3.3c0.4-0.3,0.9-0.7,1.3-1c0-0.2-0.1-0.4-0.1-0.6
			c0.1-0.3,0.7-0.2,0.9-0.4c0.4-0.5-0.2-1.2,0-1.6c0.1,0,0.3-0.1,0.4-0.1c0.4-0.7,0.7-2.2,0.6-2.8c0.2-0.1,0.2-0.1,0.6-0.1
			c0.2-1.1,1.2-2.2,1.6-3.1c0.4-0.8,0.2-1.7,0.6-2.5c0.1-0.3,0.8-0.6,0.9-0.9c0.2-0.5-0.4-0.7-0.1-1.5c0.2-0.5,0.7-0.7,0.9-1v-1
			c0.1-0.3,0.4-1,0.7-1.3c0.2-0.1,0.1-0.1,0.4-0.1c0.2-1.3,0.9-1.9,1.3-2.8c0.3-0.6,0-1.3,0.3-1.9c0.3-0.5,1-1.1,1.3-1.6
			c0.1-0.5,0.3-1.1,0.4-1.6c0.2-0.1,0.5-0.3,0.7-0.4c0.3-0.4,0.4-1,0.7-1.3c0.2-0.2,0.5,0,0.6-0.1v-0.6c0.2-0.3,0.5-1,0.7-1.3
			c0.1,0,0.3-0.1,0.4-0.1c0.8-1,0.9-2.5,1.8-3.4c0.2-0.1,0,0,0.4,0c0.3-1.1,0.9-2.3,1.5-3.1c0.2-0.1,0.5-0.3,0.7-0.4
			c0.2-0.3,0.1-0.7,0.3-1c0.1-0.1,0.5-0.1,0.6-0.3c0.1-0.4,0.3-0.9,0.4-1.3c0.3-0.4,0.9-0.5,1.2-0.9v-0.4c0.2-0.3,0.7-0.2,0.9-0.4
			c0-0.2,0.1-0.5,0.1-0.7c0.1-0.2,0.6-0.3,0.7-0.4c0-0.4,0.1-0.8,0.1-1.2c0.4-0.9,1.4-2,1.9-3c0.3-0.1,0.3,0,0.6-0.1
			c0.1-0.2,0,0,0-0.4c1.1-0.7,2.5-1.1,3.4-1.9c0,0,0.6-1.4,0.9-1.8c0.2-0.1,0.1-0.1,0.4-0.1c0.2-0.7,0.5-0.7,0.9-1.2h0.4
			c0.3-1.2,1.3-1,1.8-1.8c0.4-0.7,0.9-1.7,1.5-2.2v-0.1c-1.7,0.1-2.5,1.6-3.8,1.9v0.4c-0.2,0-4.1,2.5-4.3,2.7
			c-0.3,0.3-0.3,0.8-0.6,1c-0.4,0.3-0.7,0-1.2,0.3c-0.2,0.3-0.4,0.6-0.6,0.9c-0.4,0.3-1.2,0.3-1.5,0.6c0,0.2-0.1,0.4-0.1,0.6
			c-0.3,0.1-0.7,0.2-1,0.3c-0.6,0.6-0.6,1.3-1.3,1.8v0.4c-1.3,0.3-1.1,1.3-1.8,2.2c-0.4,0.5-1.1,0.9-1.5,1.5h-0.4v0.6
			c-1.9,1-2.9,2.3-4.3,3.7c-0.5,0.4-1.1,0.6-1.6,1c-0.3,0.3-0.4,0.8-0.7,1c-0.5,0.3-1.1,0.2-1.5,0.6c-0.7,0.8-1.1,2.2-1.8,3.1
			c-0.4,0.6-1.3,0.7-1.8,1.3h-0.4v0.4c-0.4,0.2-0.3,0.5-0.6,0.7c-0.4,0.3-0.8,0.2-1.2,0.4c-0.7,0.4-0.9,1.5-1.5,2.1
			c-1.6,1.7-4.1,1.5-5.2,4h-0.7v0.6h-0.6v0.6c-0.5,0.4-0.7,1-1.2,1.5c-0.2,0.2-0.6,0.2-0.7,0.4v0.7h-0.1c-0.4,0.3-0.8,0.7-1.2,1
			c0,0.2-0.1,0.4-0.1,0.6c-0.3,0.3-0.8,0.1-1,0.4c-0.3,0.4-0.9,1.8-1.2,2.1h-0.6c-0.2,0.2-0.1,0.6-0.3,0.9c-0.7,1.1-2.2,1-2.5,2.7
			h-0.4c-0.5,1.2-1.6,1.6-2.7,2.2v0.4h-0.4c-0.3,0.3-0.9,0.7-1.3,0.9v0.4c-1.5,0-1.6,0.6-2.7,0.9c-0.3,0-0.7-0.1-1-0.1
			c-0.1,0.2-0.3,0.5-0.4,0.7c-0.4,0.2-2.4-0.2-3,0c-0.3,0.1-0.6,0.5-0.7,0.6c-0.6,0.2-4.2-0.9-5.2-1c-0.1,0.5-0.4,1-0.7,1.3
			c-0.1,1.2-0.1,2,1,2.1c-0.1,0.4-0.1,0.6,0,1c0.2,0,0.5,0.1,0.7,0.1v0.9c1.1,0.2,3.4,2.5,4.1,3.3c0.1,0.2,0.1,0.1,0.1,0.4h0.4
			c0.4,0.9,0.9,0.9,1.3,1.5c0.4,0.6,0.5,1.3,0.9,1.9c0,0.1-0.1,0.3-0.1,0.4h-0.9c0.1,0.5,0.2,0.6,0,0.9c0,0.1-0.1,0.3-0.1,0.4
			c-0.6,0.1-1.7,0.1-2.1,0.3c-0.1,0.2-0.1,0.1-0.1,0.4c-1.7,0-2.8,0.2-4-0.1c-0.6-0.2-0.9,0.2-1.3,0c-0.6,0.1-0.6,0.1-0.9,0.3
			c0.1,0.5,0.2,0.4,0.3,0.9c0.7,0.1,0.9,0.3,1.8,0.3v-0.4c0.8,0.2,1,0.6,1.8,0.7c-0.6,1.1-2.4,1.1-3.3,1c-0.8-0.1-0.7,0.6-1.3,0.4
			c0,0-0.5-0.4-0.6-0.4c-0.5-0.1-1.5,0.2-1.8,0.1c-0.1-0.1-0.2-0.3-0.3-0.4c-0.7,0-1.4-0.1-2.1-0.1v-0.4c-1.1,0.1-2.2,0.1-2.8,0.1
			c-0.1,0.2-0.1,0.2-0.1,0.6H244c-0.1-0.6-0.1-0.5-0.3-0.9c-0.6,0.1-0.4,0.4-0.6,0.4c-0.4,0.1-1.4-0.4-1.9-0.4v-0.6h-0.6
			c0-0.4-0.1-0.8-0.1-1.2h-1v-0.4c-0.6,0-1.1-0.1-1.5-0.4c-1.3-0.1-1.9-1.2-2.4-2.1c-0.2-0.4,0-0.8-0.3-1c-0.3-0.2-0.8-0.2-1-0.4v-1
			c-0.2-0.7-0.6-1.6-1-2.2c-0.3-0.4-0.8-0.3-1.2-0.6c-0.5-0.3-0.3-0.9-0.6-1.3c-0.5-0.3-1-0.7-1.5-1c-0.2-0.3-0.7-2.6-0.7-3h-0.7
			c-0.3-1.1-0.6-2.5-1-3.4v-1.3c-0.2-0.5-1-0.8-0.6-1.5c-0.1-0.6-0.1-0.5-0.7-0.6c0.2-1.2-0.3-1.2-0.6-2.1v-0.9
			c-0.1,0-0.3-0.1-0.4-0.1c-0.3-0.4-0.1-1.5-0.3-2.1c-0.7-1.7-1.7-3.3-2.4-5.2h-0.6c-0.1-1-0.6-0.9-0.9-1.5c0-0.3-0.1-0.6-0.1-0.9
			c-0.1-0.1-0.5-0.2-0.6-0.3c-0.2-0.2-0.6-1-0.7-1.2c-0.3-0.6-0.3-1.1-0.6-1.8c-0.3-0.6-0.8-0.9-1-1.6c-0.2,0-0.5-0.1-0.7-0.1v-1.2
			c-0.7-0.6-0.9-1.4-1.5-2.2c-0.2-0.1-0.5-0.3-0.7-0.4c-0.2-0.3-0.1-0.6-0.3-0.9c-0.4-0.3-0.8-0.6-1.2-0.9c-0.1-0.1,0.3-0.3,0.1-0.6
			c-0.2-0.5-0.6-0.5-0.7-1.2c-0.7-0.1-0.9-0.4-1.3-0.7c-0.1-0.7-0.2-0.9-0.3-1.6c-1.2-0.1-1.3-1.3-1.9-2.1c-0.2-0.2-0.7-0.2-0.9-0.4
			c0-0.2-0.1-0.5-0.1-0.7c-0.3-0.5-1.1-0.7-1.3-1.2v-0.6c-0.3-0.1-0.6-0.3-0.9-0.4v-0.7c-0.2-0.4-0.8-0.9-1-1.3
			c0-0.3-0.1-0.6-0.1-0.9c-0.6-1-2.4-1.9-3-3c0-0.3-0.1-0.6-0.1-0.9c-1-1.7-2.3-3.3-3.4-4.9c-0.3-0.4-0.2-1.1-0.6-1.5
			c-0.5-0.5-1.3-1.1-1.6-1.6V412c-0.2-0.1-0.5-0.3-0.7-0.4c0-0.2-0.1-0.4-0.1-0.6c-0.1,0-0.3-0.1-0.4-0.1c0-0.3-0.1-0.6-0.1-0.9
			c-0.2-0.5-0.8-0.9-1-1.3c-0.5-0.8-0.6-1.5-1-2.4c-0.3-0.3-0.7-0.6-1-0.9v-0.6c-0.6-0.8-2.2-2.7-2.4-3.7c-0.3-0.1-0.3,0-0.4-0.1
			c-0.2-0.3,0.2-0.3,0-0.7l-1.6-1.6c0-0.1,0.3-0.4,0.1-0.7c-0.2-0.1-0.5-0.3-0.7-0.4c-0.4-0.6-0.3-1.3-0.6-2.1
			c-0.4-0.9-1.2-2.1-1.6-3.1c-0.5-1.3,0.9-1.9,0.4-3.3c-0.1-0.3-0.6-0.6-0.7-0.9c-0.4-0.9-0.4-4.1-0.4-4.1c-0.1-0.7-0.7-1.3-0.7-1.9
			c0-0.1,0.3-0.5,0.3-0.6c0-0.6-0.1-1.2-0.1-1.8c0.4-1.7,0.7-3.4,1.2-4.9V374h0.3c0.1-0.3,0.2-0.7,0.3-1c0.2-0.3,0.6-0.5,0.9-0.7
			c0.7-0.7,1-1.7,1.6-2.5c0.3-0.2,0.6-0.4,0.9-0.6v-0.4c0.1,0,0.3-0.1,0.4-0.1c0.4-0.4,0.6-1,1-1.3c0.7-0.6,1.8-0.4,2.5-0.9
			c0.5-0.3,0.7-1.2,1.2-1.5c0.5-0.3,1.2-0.4,1.6-0.7c0.1-0.3,0.1-0.1,0-0.4c0.1,0,3.2,1,3.7,1.3c1.3,0.8,2.4,2.3,4,2.8
			c-0.1,1.1-0.6,1.8-0.7,2.7c-0.5,2.6-0.6,6.4-1.3,9.2c-0.5,1.9,0.9,7.1,1.2,8.1c0.4,1.2,0,2.1,0.6,3.1v3.4c0.1,0,0.2,0.1,0.3,0.1v1
			c0.1,0.1,0.5,0.3,0.6,0.4c0.3,0.7,0.1,2.8,0.4,4c0.4,1.4,1,2.3,1.5,3.6c0.3,0.8,0.1,1.5,0.4,2.2c0.4,1,2.4,2.2,2.5,3.1
			c0.5,0.1,1,0.3,1.3,0.6c1.5,0,1.7-0.5,2.5-1c0-1.8-0.1-4.1-0.9-5.5c0.1-0.3,0.4-0.3,0.3-0.7c-0.1-0.7-0.8-1.4-1-2.1v-1.8
			c-0.1-0.3-0.7-0.9-0.7-1.3c-0.1-0.3,0.3-0.7,0.1-1.2c-0.1-0.3-0.5-0.9-0.6-1.3c0-0.3,0.1-0.6,0.1-0.9c-0.1-0.2-0.7-1.4-0.7-1.5
			c-0.1-0.5,0.5-1.3,0.3-2.2c-0.4-1.9-0.9-4.1-1.3-5.9c-0.2-0.9,0.2-2,0.3-2.7c0-1.1,0.1-2.2,0.1-3.3c0.3-0.7,0.7-2.1,0.9-2.8v-1.3
			c0.3-1.1,1-2.1,1.2-3.4c0.4-0.2,0.7-0.3,0.9-0.6c1.8,0,3.2,0.6,4.9,0.3c0.3-0.1,1.1-0.3,1.8-0.3c1.7,0.1,2.7,0.2,4-0.3
			c1-0.4,1.8-0.1,2.5-0.6c1.9,0,1.6-1.3,2.7-2.1c0-1.1,0-2,0-3.1c-0.9-0.2-1.3-1.1-2.1-1.5c-0.6-0.4-1.1-0.2-1.8-0.6
			c0-0.1-0.1-0.3-0.1-0.4c-1.3-0.7-4.3,0.7-5.2,0.9c-0.8,0.1-2-0.1-2.8,0c-1.1,0.2-4-0.5-4.7,0c-0.7-0.2-0.6-0.5-1-0.9
			c0.3-3,0.1-6.4,1.2-8.9c0.4-0.9-0.3-2.7-0.6-3.1c0-0.3,0-0.4,0.1-0.6c0,0,3.5,0.9,3.8,1.2c0.3,0.2,0.6,0.9,0.9,1h0.9
			c0.7,0.2,1.6,0.7,2.2,1c0.8,0.4,1.9,0.2,2.7,0.6c0.8,0.4,1.7,1.3,2.5,1.8c1,0.6,2.1,0.7,3.1,1.3l2.5,2.2c0.3,0.4,0.2,0.8,0.4,1.2
			c0.4,0.6,1.3,1,1.8,1.6c0.5,0.7,0.6,1.4,1,2.2c0.1,0.1,0.3,0.2,0.4,0.3c0.6,0.9,0.6,2.3,1.2,3.3c-0.2,0.9-1.7,3-2.4,3.6
			c-0.2,0.2-0.6,0.2-0.7,0.4c-0.3,0.6-0.2,1.1-0.6,1.6c0.1,1.4,0.9,2.1,1.5,3.1c3.3,0.7,5.7,1.9,7,4.6c0.3,0.6,1.1,2.3,0.4,3.3
			c-0.3,1.5-2.5,2.3-3.4,3.3c-1.6,1.6-3,3.2-4.3,5.2c-0.3,0.4-1,0.6-1.2,1.2c0,0.5-0.1,1.1-0.1,1.6c-0.1,0.1-0.3,0.3-0.4,0.4
			c-0.1,0.3-0.9,3.7-0.9,3.8c0.1,0.6,1.1,2.6,1.2,2.8c0,0.2-0.3,0.4-0.1,0.7c0.1,0.4,0.6,1.1,0.7,1.5c0.1,0.5,0.2,1,0.3,1.5
			c0.3,0.6,2.5,2.4,3.1,3c0.4,0.3,0.3,0.9,0.6,1.3c0.4,0.6,1.6,1.1,1.9,1.8c0,0.2-0.1,0.5-0.1,0.7c0.1,0,0.3,0.1,0.4,0.1
			c0.3,0.4,0.6,1,0.7,1.5h0.6c0.1,0.3,0,0.3,0.1,0.4c0.4,0.8,1.3,0.8,1.9,1.3c0.1,0.2,0.1,0.1,0.1,0.4c1.7,0.3,2.9,2.2,3.8,3.4
			c0.3,0.4,1.1,0.3,1.3,0.6c0.5,0.6,0.5,1.5,1,1.9c0.2,0.2,0.6,0,0.7,0.3c0.1,0.3,0.2,0.6,0.3,0.9c0.8,0.6,2.1,0.7,3,1.2
			c0.5,0.3,1.2,1.3,1.8,1.5c0.3,0,0.6-0.1,0.9-0.1c0.2,0.1,0.8,0.5,1,0.6h1v0.3c0.4,0.3,1.2,0.8,2.1,0.6c1.1-0.3,1.6-1,2.7-1.2
			c-0.1-1,0.6-2.1,0.3-3.3c-0.9-3.8-1.7-6.7-0.4-10.4c0-0.4,0.1-0.8,0.1-1.2c0.8-1.9,2.6-2.8,3.3-5c0.2-0.7-1.1-4.6-1.3-5.3
			c-0.1-0.2-0.3,0-0.3-0.4c0-0.4,0.4-1.2,0.4-1.5c0-0.5-0.1-1-0.1-1.5c0.3-1.4,0.1-3.6-0.1-4.9c-0.2-0.7,0.2-1.3,0.3-1.6
			c0.2-0.8-0.2-2-0.3-2.7c-0.2-1.6,0.5-3.9,0.1-5.5v-3.7c-0.1-2.7,0.1-5.8,0-8.7c-0.1-1.4,1.1-4.4,0.3-5.6c-0.2-2.6-2.9-2.1-4.7-3
			c-0.8-0.4-1.8-1.3-2.7-1.6c-0.9-0.4-1.6-0.4-2.4-0.9c-0.4-0.2-0.6-0.8-1-1c-0.9-0.4-1.7-0.2-2.5-0.6c-0.3-0.2-0.7-0.7-1-0.9
			c-0.4,0-0.9-0.1-1.3-0.1c-0.3-0.1-0.6-0.7-0.9-0.9c-0.2,0-0.5-0.1-0.7-0.1l-1-1h-0.6c-0.4-0.2-0.6-0.8-0.9-1.2
			c-0.3-0.4-1.1-0.4-1.5-0.7c-0.3-0.2-0.6-0.8-0.9-1c-1.1-1-3.3-1.9-4.6-2.7c-0.5-0.3-0.7-1-1.2-1.3c-0.9-0.8-2.2-1-3.1-1.8
			c-0.8-0.6-1.6-1.5-2.4-2.1c-0.7-0.5-1.6-0.6-2.2-1.2c-0.4-0.4-0.7-0.9-1.2-1.2c-0.5-0.3-1-0.2-1.3-0.6c-1-1-2-2.4-3.3-3.1
			c-0.2,0-0.5-0.1-0.7-0.1c-0.3-0.2-0.3-0.8-0.6-1c-0.4-0.3-1-0.3-1.3-0.7h-0.1v-0.1c4.7,0.6,9.5,1.3,14.2,1.9
			c4,0.9,8.5,0.3,12.4,1.2c5.9,0.3,11.7,0.6,17.6,0.9h3c3,0,6.5,0.2,9-0.4h3.6c2.2-0.5,4.9-0.2,7.2-0.7c2.8-0.7,6.2-0.8,9-1.5h1.6
			c2.4-0.6,5.4-1.1,8-1.3c-0.2,0.2-3.3,1.5-3.4,1.5c-0.4,0-1.1-0.2-1.6,0.1c-1.8,1-4.1,1.9-6.1,2.8c-0.5,0-1.1,0.1-1.6,0.1
			c0,0.1-0.1,0.3-0.1,0.4c-0.5,0.3-1.1,0.2-1.6,0.4c-0.8,0.4-1.9,1.2-2.7,1.6c-0.3,0.1-0.7,0.2-1,0.3c-0.7,0.5-1.8,1.5-2.5,1.9
			c-1.1,0.6-2.1,0.8-3.1,1.5c-0.8,0.6-1.3,1.4-1.9,2.2c-1.1,1.4-2.9,2.5-4.1,3.8c-1,1.1-3.5,3-4.1,4.3c-0.5,1-0.3,2-0.6,3.3
			c-0.2,0.7-1,2-0.4,3c0.2,0.4,0.3,0.3,0.6,0.6c2.4-0.1,6.4-3.3,8.3-4.3c0.6-0.3,1.6-0.2,2.2-0.6c0.5-0.3,1-1.1,1.5-1.3
			c0.5,0,1.1-0.1,1.6-0.1c0.7-0.3,1.4-1.1,1.9-1.5h0.6c0.8-0.4,1.6-1.3,2.7-1.5c0.2,0,0.5,0.1,0.7,0.1c0.5-0.2,1.1-1,1.5-1.2
			c0.5-0.3,1.5-0.7,1.9-0.9h0.9c0.1-0.1,0.6-0.5,0.7-0.6c0.5-0.2,2.3,0.4,2.7,0.3c1.3-0.3,2.7-0.3,4.6-0.3c-0.1,0.7-0.5,1.4-0.1,2.4
			c0.1,0.2,0.5,0.6,0.6,1c0.4,1.7-0.6,5.2-1,6.4c-0.5,1.1-0.2,2.4-1.3,2.8c-0.7,0.4-2.2,0-3.1,0.1c-0.7,0.1-4.5-0.2-5.6-0.7
			c-0.4-0.2-0.6-0.8-0.9-1c-0.4-0.2-0.7-0.1-1.2-0.3c-0.1-0.2-0.3-0.4-0.4-0.6c-0.6-0.4-1.4,0.2-2.1-0.1c-1.7,0-2,1.4-1.9,3.1
			c0.7,0.7,1.1,1.6,1.6,2.5c0.4,0.3,0.9,0.7,1.3,1c0,0.3,0.1,0.6,0.1,0.9c0.1,0.1,4.4,2.4,4.7,2.5c0.9,0,1.8,0.1,2.7,0.1
			c1.3,0.5,3.3,0.3,4.9,0.6c0.7,0.1,0.7-0.4,1.2-0.1c0.5,0,1,0,1.3,0.1c0.3,0.7,0.6,1.8,0.7,2.5v1.8c0.1,0.3,0.5,0.7,0.6,0.9
			c0.3,0.6,0.7,2.2,0.9,2.8v2.1c0.7,2.3,1,7.5,0.3,10.4c-0.2,1,0,2.2,0,3c0.1,1.5-0.4,2.8-0.7,3.8c-0.4,1,0,2.1-0.1,2.8
			c-0.2,1-0.6,2.8-0.9,3.4c0,0.7-0.1,1.5-0.1,2.2c-0.2,0.1-0.5,0.3-0.7,0.4c0,0.3,0.1,0.6,0.1,0.9c-0.1,0-0.2,0.1-0.3,0.1
			c0,0.3-0.1,0.7-0.1,1c-0.9,1.7-2.4,3.5-2.4,6.1c2.8-0.1,3.4-1.5,6.1-1.3c0.5,0.5,1.1,1,1.6,1.5c-0.2,2-2.4,2.7-3.7,3.6
			c-0.6,0.4-1.2,1.1-1.8,1.5c-0.3,0-0.7,0.1-1,0.1c-0.8,0.4-1.3,1.6-2.1,2.1c-0.6,0.3-1.5,0.2-2.1,0.6c-0.9,0.5-1.4,1.5-2.2,2.1
			c-0.9,0.7-1.9,1-2.5,1.9c-0.7-0.1-1.4-0.2-2.1-0.3c-2.4,0.5-5,1.6-7,2.7c-0.5,0-1.1,0.1-1.6,0.1c-0.5,0.2-0.9,0.8-1.5,0.9
			c-0.3,0-0.6-0.1-0.9-0.1c-0.1,0.1-0.2,0.3-0.3,0.4c-0.4,0.1-0.7-0.4-1.3-0.4v0.4c-0.8,0.2-1.4,0.8-2.1,1.2
			c-0.7,0.4-1.5,0.2-2.2,0.4c-0.2,0.1-0.6,0.5-0.7,0.6c-1.1,0.5-1.9-0.3-3.1,0.1l-0.7,0.7h-1.2c-0.1,0.1-0.3,0.5-0.4,0.6h-0.9
			c-0.1,0.1-0.2,0.3-0.3,0.4c-0.1,0-0.6-0.3-0.9-0.1l-0.6,0.6c-0.4,0-0.8,0.1-1.2,0.1c0,0.1-0.1,0.3-0.1,0.4h-0.9l-0.6,0.6
			c-0.3,0-0.7-0.1-1-0.1c-0.8,0.3-2.6,1-3.3,1.5c-0.9,0.1-1.3,0.1-1.3-0.7c-1.8-0.4-3.5-0.6-5-1.3c-0.7-0.3-1.5-1.1-2.4-1.3
			c-0.9-0.3-1.5,0.2-2.2,0c-0.3-0.1-0.6-0.5-0.9-0.6c-0.8-0.3-1.6,0.3-2.4,0.1c-0.4-0.1-0.9-0.6-1.2-0.7h-0.9
			c-0.3-0.1-0.7-0.5-0.9-0.6c-0.3,0-0.6,0.1-0.9,0.1c-0.1,0-0.9-1.1-1-1.2c-0.3,0-0.6,0.1-0.9,0.1l-0.6-0.6h-0.6
			c-0.1-0.2-0.2-0.4-0.3-0.6c-0.3,0-0.6-0.1-0.9-0.1c-0.6-0.3-1.4-1.1-2.1-1.3c-0.6-0.2-1.9,0-2.1-0.1c-1.2-0.7-1.3-1.8-3.4-1.8
			c-0.2-2.1-2.6-1.9-3.8-3c-1.3-1.1-2.6-2.2-4-3.3c-0.6-0.5-0.9-1.4-1.5-1.9c-0.2-0.2-0.6-0.2-0.7-0.4c-0.4-0.6-0.5-1.2-0.9-1.8
			c-0.2-0.2-0.5-0.1-0.7-0.3c-0.3-0.3-1.2-1.5-1.5-1.9c-1-1.4-1.5-3.3-3.8-2.5c-0.1-0.2-0.3-0.8-0.4-0.9c-0.3-0.2-0.5,0-0.7-0.3
			c-0.6-0.8-0.9-1.9-1.5-2.7c-0.2-0.3-1.4-0.9-1.6-1.2v-0.7c-0.1-0.2-0.4,0-0.6-0.1c-0.4-0.3-0.5-0.9-0.9-1.2
			c-0.3-0.2-0.7-0.1-1-0.3l-1.5-1.5c-0.3-0.2-0.6-0.1-0.9-0.3c-0.3-0.3-0.3-0.9-0.6-1.2c-0.3-0.3-0.9-0.2-1.2-0.4v-0.6
			c-0.2-0.2-0.5-0.4-0.7-0.6c-0.4-0.7-0.5-1.6-1-2.2c-0.6-0.8-1.8-1.5-2.4-2.4c-0.5-0.7-0.5-1.6-1-2.2c-0.5-0.5-1.6-1.3-1.9-1.8
			c-1.9,0.1-1,2-0.7,2.8v1.5c0.5,1.2,1.8,2,2.4,3.1c0.3,0.6,0.8,2.7,1.2,3.1c1.5,1.4,4.1,2.2,4.6,4.6c1.1,0.2,0.7,0.7,1.3,1.3
			c0.3,0.3,1,0.3,1.2,0.7c-0.3,0.7,0.1,1.6,0.4,2.2c0.3,0.5,0.9,0.5,1.3,0.9c0.2,0.2,0.2,0.8,0.4,1c0.2,0.1,0.4,0.3,0.6,0.4
			c0.7,1.1,0.6,2.3,1.2,3.4c0.6,1,2.2,1.5,2.8,2.5c0.1,0.6,0.2,1.3,0.3,1.9c0.2,0.4,0.9,0.5,1.3,0.7c0.5,0.4,0.6,1.3,1.2,1.6
			c0.3,0,0.6,0.1,0.9,0.1c1,0.6,2,2.6,2.8,3.6c0.4,0.4,1,0.6,1.3,1c0.4,0.6,0.8,2,1.2,2.5c0.1,0,0.3,0.1,0.4,0.1
			c0.3,0.4,0.3,1,0.6,1.5c0.2,0.2,0.5,0.4,0.7,0.6c0,0.3,0.1,0.7,0.1,1c0.3,0.4,1.2,0.3,1.5,0.7c0.3,0.4,0.2,0.8,0.4,1.3
			c0.2,0.4,1,0.6,1.3,0.9c0.3,0.2,0.2,0.8,0.4,1c0.1,0.1,1.5,1,1.6,1c-0.1,0.2-0.1,0.2-0.1,0.6c0.3,0,0.4,0,0.6,0.1
			c0.9,0.5,1.5,2.5,2.4,3.1c0.4,0.1,0.8,0.3,1.2,0.4c0.4,0.3,0.3,0.7,0.6,1c0.2,0.2,0.7,0.2,0.9,0.4c0.4,0.5,0.7,1.7,1.2,2.1h0.6
			c0.1,0.1,0.4,0.8,0.4,0.9c0.4,0.4,1.2,0.5,1.5,0.9c0.2,0.3,0.1,0.6,0.3,0.9c0.1,0,0.3,0.1,0.4,0.1c0,0.2-0.1,0.5-0.1,0.7
			c0.2,0.1,0.5,0.3,0.7,0.4c0.3,0.4,0.2,0.8,0.6,1c0.2,0,0.4,0.1,0.6,0.1v0.4c0.2,0.4,0.8,0.8,1,1.2c0,0.2,0.1,0.5,0.1,0.7
			c0.5,0.6,4.4,2.6,5.6,2.4c0.5-0.1,0.6,0.3,1.3,0.3c0.4,0,0.7-0.4,1-0.4h0.1c0.5-0.1,0.9,0.2,1.2,0.3c0.7,0.2,0.9-0.4,1.3-0.3
			l0.4,0.3c0.4,0.1,1.2-0.3,1.6-0.4c1-0.2,2.7,0.1,3.4,0.3c0.9,0.3,1.9-0.6,3.1-0.1c1,0.4,3,0.5,4.1,0.7h1.8
			c0.2,0.1,0.1,0.4,0.6,0.3c0-0.1,0.1-0.2,0.1-0.3c0.6-0.2,1.2,0.3,1.8,0.1c0.1-0.1,0.3-0.3,0.4-0.4c0.4,0,0.9,0.1,1.3,0.1
			c0,0,0.2-0.4,0.3-0.4h1.3c0.1-0.1,0.2-0.3,0.3-0.4c0.6,0.3,1-0.1,1.5-0.3h1.3c0.8-0.3,1.5-1.1,2.2-1.5c0.4-0.2,1,0.1,1.3-0.1
			c0-0.2,0.1-0.4,0.1-0.6c0.2-0.3,0.8-0.7,1-0.9c0.8-0.6,1.7-0.3,2.1-1.3h0.6c0.1-0.5,2.1-4.3,2.4-4.4h0.7c0.2-0.1,0.3-0.7,0.4-0.9
			c0.3-0.4,1.1-0.6,1.3-1c0.3-0.4,0-0.9,0.3-1.3c0.2-0.4,1-0.6,1.2-1c0.7-1.2,1.2-2.9,2.5-3.4v-0.4h0.4c0.1-0.4,0.1-0.4,0-0.9
			c0.7-0.2,0.9-0.4,1.3-0.7c0-0.3,0.1-0.7,0.1-1c0.8-0.1,0.5-0.2,0.9-0.7c1.1-0.7,2.7-0.5,3.7-1.3c0.1-0.2,0.1-0.1,0.1-0.4
			c1.1-0.2,0.9-0.7,1.5-1.3c0.5,0.7,2.5-1,2.8-1c0-0.4,0-0.5-0.1-0.7c0.1-1.2,0.7-1.1,1-2.1c0.6-0.1,0.6-0.2,1.2-0.3V429
			c0.4-0.1,0.5-0.1,0.7-0.3c0.4-0.2,0.3-0.3,0.3-0.9c0.8-0.2,1.7-0.6,2.5-0.7c-0.1-0.3,0-0.3-0.1-0.4c0.4-0.3,0.7-0.2,1.2-0.4
			c0.3-0.2,0.1-0.5,0.3-0.7c0.4-0.6,1.4-1,1.9-1.5c0.1-0.2,0.1-0.1,0.1-0.4h0.6v-0.4h0.4c0.4-0.7,0.9-1.4,1.5-1.9
			c0.1,0,0.3-0.1,0.4-0.1v-0.6c0.4-0.5,1.5-0.6,1.9-1.2v-0.6c0.2-0.3,0.7-0.4,0.9-0.7c0.3-0.6,0.1-1,0.4-1.5
			c0.5-0.6,1.7-0.7,2.2-1.3c0.7-0.9,0.9-1.9,1.6-2.8c0.1,0,0.3-0.1,0.4-0.1c0-0.3,0.1-0.6,0.1-0.9c0.2-0.3,0.8-0.7,0.9-1
			c0.2-0.7-0.2-1.4,0.1-1.9c0.3-0.1,0.6-0.2,0.9-0.3c0.3-0.2,0.2-0.6,0.4-0.9h0.3l0.1-2.2c0.2-0.5,1-0.5,1.3-0.9
			c0.3-0.3,0.3-0.8,0.6-1.2c0.3-0.2,0.7-0.5,1-0.7c0.3-0.4-0.1-1.1,0.1-1.6c0.1-0.3,0.7-0.3,0.9-0.6c0.3-0.5,0-1,0.3-1.3
			c0.2-0.2,0.6-0.1,0.7-0.3c1.6-1.6,3.6-2.4,3.4-5.5c-0.3-0.3-0.2-0.4-0.6-0.6c-0.3-0.6-2.8-1.3-3.6-0.4c-1.8,0.2-1.4,1.9-2.1,3.3
			c-0.2,0.4-1,0.9-1.2,1.3c-0.3,0.7,0.1,2.1,0,2.5c-0.2,0.7-0.8,0.9-1,1.3c-0.6,0.9-0.4,2-0.9,3c-0.3,0.5-1.3,0.6-1.6,1
			c-0.4,0.6-0.2,0.8-0.9,1c0,1.2,0,1.5-0.1,2.5c-0.7,0.2-1.6,0.1-2.4,0.4c-0.7,0.3-1.1,1.4-1.6,1.9c-0.5,0.6-2.5,1.2-3,1.9
			c0,0.3-0.1,0.7-0.1,1c-0.6,1.1-2.1,2-3,3c-1-0.2-1.1-1.3-1.8-1.8c0-2.1,1.4-2.6,2.2-4.1c0.1-0.4,0.2-0.9,0.3-1.3
			c0.5-1.1,1.2-2.7,1.5-4c0-0.3-0.1-0.6-0.1-0.9c0.1-0.2,0.5-0.5,0.6-0.7c0.2-0.8-0.5-3-0.3-4.1c0.1-0.4,0.5-0.9,0.6-1.2
			c0-0.5-0.1-1.1-0.1-1.6c0.2-0.7,0.5-1.9,0.7-2.5c0.2-0.5-0.1-1.4-0.1-1.6c-0.2-0.8,0.2-1.5,0.3-1.9c0-0.6-0.1-1.3-0.1-1.9
			c0.2-0.7,0.5-2.8,0.4-3.3c-0.1-0.6-0.5-2.2-0.7-2.8c-0.1,0-0.3-0.1-0.4-0.1c-0.2-0.4,0.6-2.9,0.4-3.7c-0.1-0.4-0.5-1.1-0.6-1.5
			c-0.1-0.8-0.2-1.6-0.3-2.4c-0.1-0.2-0.5-0.6-0.6-0.7c-0.5-1.1-0.3-2.4-0.4-3.4c0.4-0.4,1-1.2,1.6-1.3c0.2,0,0.5,0.1,0.7,0.1
			c0.3-0.1,0.6-0.6,0.9-0.7c0.9-0.1,1.8-0.2,2.7-0.3c0,0,0.5-0.7,0.6-0.7c0.5-0.3,0.9-0.2,1.5-0.4c0.1-0.2,0.3-0.4,0.4-0.6
			c0.8-0.4,1.8-0.1,2.4-0.6c0.4-0.3,0.6-0.9,0.9-1.3c0.1-0.2,0.4-0.1,0.6-0.3c0.6-0.6,1-1.4,1.5-2.2c0.1,0,0.3-0.1,0.4-0.1
			c0.4-0.7,0-1.7,0.1-1.9c0-1.4-0.6-1.2-1-2.1c-0.1-0.2-0.1-0.2-0.1-0.6c-1-0.1-0.7-0.6-1.5-0.9c-0.9-0.6-2.6-0.3-3.8-0.3
			c-1.6,1.7-4.7,4.4-7.7,4.6c0.1-2.2-0.3-4.6-0.9-6.1h-0.6c-0.3-1.5-1.6-2.2-2.5-3.1l-0.1-0.1h0.1c0.7-1.2,2.3-0.3,3.6-0.7
			c0.9-0.3,2.9-0.9,4.1-0.9c0.2,0,0.5,0.3,0.9,0.1c1.1-0.4,2.8-0.9,4.1-1.2c1.4-0.4,3.2-0.1,4.4-0.6c0.4-0.2,1-0.7,1.5-0.9
			c0.9-0.3,1.6-0.2,2.5-0.6c0.4-0.2,0.8-0.7,1.2-0.9c0.6-0.2,1,0,1.6-0.3c0.6-0.3,1.5-1,2.1-1.3c0.3-0.2,0.7-0.1,1-0.3
			c0.2-0.1,0.4-0.6,0.6-0.7c0.9-0.6,1.9-0.8,2.7-1.5c0.3-0.4,0.6-0.8,0.9-1.2c0.3-0.1,0.6-0.2,0.9-0.3c2.6-1.8,4.2-5.3,6.1-7.8
			c0.1-0.2,0.4-0.1,0.6-0.3c0.7-0.5,1.2-1.8,1.9-2.2c0.8-0.4,1.8-0.1,2.5-0.6c0.3-0.4,0.4-1.2,0.4-1.8c1.1-0.1,1.8-0.6,2.7-0.9
			c3.7-1,7.1-1.9,10.5-3c3.5-1.1,6.8-1.6,10.2-2.8c5.6-1.9,11.4-3.9,17.3-5.5h1.3c1.3-0.3,2.6-0.4,4.1-0.6c0.6-0.1,1.5,0.2,2.1,0.1
			c0.3-0.1,1.4-0.4,1.6-0.4c0.7,0,2.3,0,3.3-0.1c0.3,0,0.7,0.1,1,0.1c1.2-0.3,3-0.7,4.4-0.7C406.1,311.6,402,308.3,400.5,307.2z
			 M203.6,348.1c0,0.3-0.1,0.6-0.1,0.9l-0.4,0.4c-0.9,1.9-0.9,6.8-1.9,7.8c-0.4,0-1.2-0.5-1.8-0.7c-0.5-0.2-1.2-0.3-1.5-0.1
			c-0.3-0.4-0.6-0.8-0.9-1.2c-1.9-1.3-4.3-3.9-7.2-3.8c-0.3,0.3-0.6,0.7-1,0.9c-0.9-1.2-2-2.5-2.7-3.8c-0.5-1-0.6-1.8-1.2-2.7
			c-0.5-0.7-1.4-1.3-1.9-2.1c-0.7-1-0.9-1.8-1.8-3c-0.2-0.1-0.5-0.3-0.7-0.4c-0.3-0.5-0.2-1-0.4-1.5c-0.2-0.3-0.7-0.7-0.9-1
			c0.2-0.3,0-1-0.1-1.3v-0.4c0.4,0.2,0.9,0.5,1.2,0.6c0.3,0,0.6-0.1,0.9-0.1c0.2,0.1,0.4,0.8,0.6,0.9c0.5,0.3,1.2,0.4,1.8,0.4v0.4
			c0.1,0,0.3,0.1,0.4,0.1c0.1,0.2,0.4-0.2,0.6-0.3c0.8,1.2,2,0.9,2.7,2.1c0.8-0.1,0.7,0.1,1.6,0.1v0.4c0.3,0,0.7,0.1,1,0.1
			c0.1,0.5,0.1,0.4,0.3,0.7h1v0.4c1,0.3,1.7,0,2.2,1c0.8,0,0.7-0.1,0.7,0.4c0.4,0,0.8-0.1,1.2-0.1v-0.4c0.9,1.1,4.8,2.9,6.1,2.2
			c0.7,0.7,2.6,1.6,3.6,1.6C204.7,347.8,204,347.4,203.6,348.1z M296.4,335.3h-0.3v-0.3h0.7C296.7,335.2,296.5,335.2,296.4,335.3z
			 M299.5,334.8h-1c0.1-0.1,0.6-0.2,0.7-0.3h0.7C299.8,334.6,299.6,334.7,299.5,334.8z"/>
	</g>
</g>
</svg>
