<?xml version="1.0" encoding="utf-8"?>
<!-- Generator: Adobe Illustrator 25.2.1, SVG Export Plug-In . SVG Version: 6.00 Build 0)  -->
<svg version="1.1" id="Ebene_1" xmlns="http://www.w3.org/2000/svg" xmlns:xlink="http://www.w3.org/1999/xlink" x="0px" y="0px"
	 viewBox="0 0 496.6 496.8" style="enable-background:new 0 0 496.6 496.8;" xml:space="preserve">
<style type="text/css">
	.st0{fill:none;}
	.st1{fill-rule:evenodd;clip-rule:evenodd;}
</style>
<path class="st0" d="M-0.8-0.8h497.5v497.5H-0.8V-0.8z"/>
<g>
	<g>
		<path class="st1" d="M23.3,67.9C4.4,96.3,8.6,149.5,8.6,196.6v160.5c0,5.2-0.6,11.7,0.4,16.2c0.1,3.5,0.3,7,0.4,10.6
			c2.4,11,3,21.7,6.8,31c9.7,23.9,27.6,39.2,61.6,38.9v-7.6c-8.8,0-13.9-2.8-18.9-6.4c-19.8-14.4-16.2-48.4-16.2-82.3V136.2
			c0-42.9-4.2-81.4,35.1-85.7V43c-7.2,1.4-14.7,0.5-21.1,2.3C42.2,49.2,30.6,56.9,23.3,67.9z M488.1,197.4
			c0-48.5,4.2-102.5-15.9-131c-7.2-10.3-18.5-17.1-32.1-21.1c-6.4-1.9-13.9-1-21.1-2.3c-0.6,1.8-0.4,5.1-0.4,7.6
			C457,52.9,454.1,93,454.1,134v224.7c0,32.3,3,66.6-15.5,80.4c-5.2,3.9-10.3,7.2-19.6,7.2l-0.4,0.4v7.2c35.8,0,52.4-15.7,62.7-41.2
			c3.2-7.8,3.7-17.2,5.7-26.1c0.3-5,0.5-10.1,0.8-15.1c1-4.4,0.4-10.8,0.4-15.9V197.4z M371.1,299.4c-2.9-2.5-5.5-5.7-8.7-7.9
			c-2.7-1.9-5.9-3-8.7-4.9c-9-6.4-16.1-15.8-21.1-26.1c-2.4-4.9-2-10.5-3.8-16.2c-1.4-4.4-2.9-9.4-4.2-14
			c-0.9-5.3-1.8-10.6-2.6-15.9c-0.1-2.3-0.3-4.5-0.4-6.8c-1.8-7.4-0.7-15.5-2.6-23c-2.4-9.3-5-24.1-9.4-31.3
			c-3.2-5.2-8.5-9.8-10.6-15.9c-2.7-7.7-0.4-17.8-4.2-24.9c-4.9-9.2-25-17.5-34.4-23.4c-8.9-5.6-21.8-15.2-27.9-23.4
			c-3.7-4.9-7.1-10-11.3-14.3c-4.1,0.6-2.8,11.6-1.9,15.5c0.9,4,1.1,8.3,2.3,12.5c2.3,8.2,7.5,22.4,2.3,31
			c-4.1,6.7-10.7,11.9-14.7,18.5c-1.9,3.1-1.1,7.3-2.3,11.3c-0.7,2.5-2,5.7-3.4,7.9c-4.1,6.7-9.3,11.6-12.1,20
			c-3.3,9.8-3.8,20.4-6.8,30.6c-4.6,15.3-8.6,31.6-14.3,45.3c-2.3,5.4-2.8,11.2-5.7,15.9c-1.3,2.1-3.5,3.7-4.9,5.7
			c-2.6,3.5-4.2,7.9-7.9,10.2c-4.8,3-11.1,3.6-15.5,6.8c-4.8,3.5-8.8,8.8-13.6,12.5v0.8c3.3,0.7,7.5,0.8,11,1.5h9.8
			c7.5,1.7,17.1,4.3,22.3,8.3c1.3,1.8,0.7,5.4,1.9,8.3c2.2,5.3,3.9,11.8,6,17.4c0.3,1.9,0.5,3.8,0.8,5.7c1,3.4,1.7,7.4,3,11
			c2,5.5,4.7,12.6,8.3,17.7c0.8,1.1,2.6,1.8,3.4,3c1.5,2.3,2.1,5.2,3.4,7.6c1.8,3.2,4.8,6.1,6.8,9.1c1.7,2.5,2.5,5.4,4.2,7.9
			c3.3,5,8,9.8,10.6,15.5c1.4,3.1,2,5.9,3.4,9.1c1.1,2.5,3.4,5.5,4.5,7.9c3.6,7.8,0.4,12.7,7.9,18.1c7.5,5.4,13.4,5.8,23,3.4
			c2.2-0.5,4.7,1,6.4,1.5c0.8,0.2,1.7-0.3,1.9-0.4c1.6-0.3,3.7,0.8,4.9,0.4c0.7-0.2,4.1-2.1,4.9-2.6c7-4.9,10.1-19.5,13.6-27.2
			c5.5-12,13.4-22.7,22.3-31.3v-0.8c-4.4,1.2-10,7.1-12.5,10.6c-1.8,2.5-5.7,4.3-7.9,6.4c-0.8,0.7-0.8,2.3-1.5,3
			c-0.8,0.8-2.1,1.1-3,1.9c-0.5,0.8-1,1.5-1.5,2.3c-3.5,2.5-6.5,4.9-9.1,8.3c-2.4,3.3-10.3,11.5-15.1,8.3c-1.8,0-2.1-0.2-2.6,1.1
			c-0.3,0.4-0.1,0.1-0.4,0.8c2.5,2.6,4.7,5.4,7.2,7.9c-0.3,0.4-0.7,1.1-1.1,1.5c-1.3,1-4.1,0.8-6.4,0.8c0.2,0.7,0.1,0.4,0.4,0.8
			c0.6,0.4,1.2,0.2,1.5,0.4h0.8c-1,1.7-8.7,1.1-10.2,0.4c-2.3-0.1-1.5-0.5-2.6-1.5c-0.7-0.6-1.8-0.2-2.6-0.8c-1.7-1.1-1.8-4-3-5.7
			c-0.5-0.3-1-0.5-1.5-0.8c-0.8-1-2.1-3.4-2.6-4.5c-0.1-1.1-0.3-2.3-0.4-3.4c-1.1-2.6-2.1-5.9-3.4-8.7c-2.8-6.4-8.1-12-12.1-17.4
			c-4.6-6.3-8.3-12.9-12.5-19.6c-1.5-2.4-4-5-5.3-7.6c-1.1-2.2-0.3-4.2-0.8-6c-0.1-0.3-1-1.5-1.1-1.9c-2.6-9.1,3.2-16.6,9.1-18.5
			c1.6-0.9,4.7,2.2,6,3c-0.6,3.3-1.3,6.5-1.9,9.8c0.2,6.2,1.6,12.5,3.4,17.4c0.3,1.3,0.5,2.5,0.8,3.8c0.9,0.9,1.8,1.8,2.6,2.6
			c1.6-0.1,1.7-0.3,2.6-0.8c-0.3-8.3-6.8-23.4-1.5-30.2c0.1-0.4,0.3-0.8,0.4-1.1c3.9,0.3,8.9,1.1,11.7-1.1c0.4-0.4,0.8-0.8,1.1-1.1
			c0-3.7-1.6-3.3-3.4-4.9c-3.2,0.2-6.5,0.8-10.6,0.8c0.1-2.6,1-8.9,0.4-9.8v-0.8c3.9,0.5,13.2,5,15.1,7.6c1.3,1.7,2,4.1,3.4,5.7
			c-0.1,2.5-1.3,3.7-2.6,4.9c0.2,4.1,2.9,3.1,5.3,4.9c0.6,0.5,0.8,1.4,1.5,1.9c0.1,0.9,0.1,1.1,0.4,1.5c-0.9,5.1-8.1,6.7-8.7,13.6
			c-0.1,0.8,1,1.9,1.1,2.3c0.3,1.1,0.5,2.3,0.8,3.4c0.6,1,5.6,7.3,6.4,7.9c1.2,0.9,2.4,1.3,3.4,2.3c1.2,1.2,2.3,3.6,3.8,4.5
			c1.9,1.2,5,1.4,6.4,3c1.6-0.1,1.8-0.5,3-0.8c0.7-3.4-1.4-6.4-0.4-10.2c0.6-2.3,2.4-3.6,3-5.3c0.8-2.2-0.9-4.1-1.1-5.3
			c-0.3-1.5,0.3-5.2,0-6.8c-0.2-1.3,0.4-3.5,0.4-5.3c0-7.6,0.3-10.1,0.4-17.4c-3.8-3.5-9.5-4.3-14-7.2c-3.1-2-6.1-5-9.1-7.2
			c-3.8-2.7-8.7-4.9-11.3-8.7h-0.8v-0.4c16.8,0.8,37.4,5.6,55.1,1.5c3.6-0.8,7.9,0.2,10.6-1.5h0.8v0.4c-9.6,3.6-20.7,8.3-25.7,16.2
			c-0.4,1.4-0.8,2.8-1.1,4.2c0.1,1,0.2,1.3,0.4,1.9c2.8-0.5,4.4-2.2,6.4-3.4c5.2-3,11.9-6.5,18.9-6.4c0.2,3.2,1.3,6.8-0.8,9.4v0.8
			c-5.6,0.1-7.9-1-11.7-2.3l-0.8,0.8c-0.1,7.9,8.7,8.1,14.3,8.3c0.2,3,1.9,5.8,1.9,8.3c-0.1,8.4,0.2,20.7-4.5,26.8v0.8
			c1.8,0,2.5-0.3,3.4-1.1c1.7,0.1,2,0.4,2.6,1.5h0.8c-0.3-1.1-0.4-1.3-1.1-1.9c0.4-2.7,2.3-4.3,3-6.8c1.4-4.7,1.6-15.7,0.8-19.3
			c-0.7-2.9,0.9-4.9-1.1-7.2c0-5.9,5.7-3.8,8.7-6.4c1.1-1,1.6-2.8,2.6-3.8c-0.2-2.6-1.2-2.6-2.3-4.2c-3.8,0-6.2,2-8.3,3.8
			c-1.3-0.8-1-5.2-3.8-7.2c1.1-1.7,4.5-0.9,6.8-1.5c4.6-1.2,10.2-2.2,14-4.5c2.3-1.4,6-4.2,7.6-6.4c1.2-1.8,1.7-4.1,3.4-5.3
			c0.8-0.1,1.5-0.3,2.3-0.4c0.3-0.6,0.5-1.3,0.8-1.9c2.2-1.5,9.7-2.4,12.8-3.4c10.3-3.4,20-6.9,33.6-7.6
			C374.2,301.6,372.4,300.5,371.1,299.4z M212.5,333c-0.7,1.8-0.2,4.1-1.1,5.7c-1.5,0.9-6.4-3.3-7.6-4.5c-1.4,0.1-1.3-0.2-1.9,0.8
			c-1.3-0.6-7.8-10.8-7.9-12.8c7.1,1.5,11.6,7.2,20,8.3C213.6,331.4,212.8,332.1,212.5,333z"/>
	</g>
</g>
</svg>
