<svg xmlns="http://www.w3.org/2000/svg" viewBox="0 0 499.93 500"><g id="Ebene_2" data-name="Ebene 2"><g id="Ebene_1-2" data-name="Ebene 1"><path d="M249.85,500C111.8,499.75-1,387.94,0,247.86A249.67,249.67,0,0,1,253.14,0C389,1.53,501.19,112.34,499.92,252.51,498.69,388.77,388.27,499.71,249.85,500ZM392.48,218.3c-.18-.64-.49-1.74-.79-2.85-1.89-7-3.07-14.28-5.8-20.94-13.6-33.26-39-52.39-73.9-58.27a82.82,82.82,0,0,0-46,5.55c-3.3,1.37-5,3.37-5,7.25q.13,82.5.08,165c0,6,2.13,8.06,8,8.06,48.42,0,96.84-.09,145.26.12a42.88,42.88,0,0,0,15.94-3.09c31.27-12,44.13-47.65,28.16-75.69-9.36-16.44-23.62-26.12-42.78-27C408.17,216.1,400.64,217.58,392.48,218.3ZM255.73,169.42h-.3c0-5.27.21-10.54-.08-15.79-.18-3.21-2-5.47-5.64-5.44s-5.15,2.22-5.34,5.6c-.07,1.16-.11,2.32-.14,3.48-.44,17.34-1.12,34.67-1.26,52-.25,30.62-.22,61.25-.17,91.88a108.61,108.61,0,0,0,1.2,15.27c.49,3.34,2.29,6,6.41,5.66,3.72-.29,4.92-3.32,5-6,.83-19.53,1.85-39.08,1.8-58.61C257.17,228.15,256.28,198.79,255.73,169.42Zm-19.26,8.06h-.42c0-4.82.38-9.69-.21-14.44-.21-1.68-2.67-4.1-4.33-4.3s-4,1.59-5.48,3.06c-.84.82-.79,2.72-.83,4.15-.86,32.23-2,64.46-2.36,96.7-.2,17.64.88,35.29,1.5,52.94.18,5,2.23,6.68,7.14,6.51,3.84-.14,6.24-3.44,6.4-9.26.27-10.23.71-20.46.55-30.68C237.9,247.28,237.14,212.38,236.47,177.48Zm-71.28,82.4-.75,0c1,18.78,1.93,37.55,3,56.31.24,4.25,3.15,7,6.24,5.62a8.78,8.78,0,0,0,4.28-6.09c1.16-12.19,2.34-24.43,2.42-36.66.1-17.63-.76-35.28-1.18-52.92q-.54-23.65-1-47.31c-.11-5.94-2.09-9.43-5.57-9.44s-5.17,2.86-5.34,9.07Zm19,11c.47,9.2,1.29,27.12,2.38,45,.18,2.95,1.14,6.14,5.27,6.2,4.3.07,5.39-3.16,5.63-6.28,1-12.79,2.16-25.59,2.28-38.41.14-15-.78-30-1.17-45s-.64-29.78-1.05-44.66a44.58,44.58,0,0,0-1.12-10.41c-.48-1.74-2.77-4.28-4.1-4.2-1.77.12-3.59,2.27-5,3.87-.63.72-.47,2.23-.51,3.38C186,207.62,185.19,234.88,184.16,270.88Zm19-6.21c.61,12.18,1.56,31.87,2.61,51.55.16,3.09,1.26,5.66,5.05,5.91,4.34.28,5.72-2.9,5.95-6,1-13.24,2.14-26.51,2.25-39.77.12-15.47-.82-30.94-1.22-46.41-.38-14.61-.65-29.22-1-43.84a17.69,17.69,0,0,0-.14-3.93c-.82-3.13-1.66-6.69-6-6.19-3.71.42-4.84,3.27-4.88,6.68-.08,7.45,0,14.9-.31,22.34C204.93,222.4,204.18,239.76,203.18,264.67ZM146,259.44h.09c-.1,2.33-.39,4.67-.28,7q1.16,24.45,2.47,48.89a7.69,7.69,0,0,0,.52,2.56c.87,2.06,1.33,4.29,4.53,4.32s4.12-2,4.49-4.23a134.52,134.52,0,0,0,1.4-13.44c.83-13.53,2.2-27.08,2.16-40.62-.07-18.81-1.19-37.62-1.93-56.44-.36-9.17-.86-18.34-1.36-27.51-.17-3.18-1.16-6.08-5.08-5.68-3.6.38-4.5,3.32-4.6,6.42Q147.17,220.08,146,259.44Zm-19.06,13.09c.47,7.5,1.23,20.46,2.11,33.41a109.1,109.1,0,0,0,1.51,13c.23,1.21,2,2.56,3.32,3.05,2.15.79,3.56-.52,4-2.72a40.37,40.37,0,0,0,.78-4.74c.68-9,1.34-18,1.93-27,.48-7.4,1.2-14.81,1.19-22.21,0-7.57-.89-15.13-1.23-22.7-.77-17.2-1.44-34.4-2.18-51.6-.12-2.76-.8-5.94-4.08-5.5-1.59.21-3.73,3.21-4,5.16-.82,6.18-1,12.46-1.21,18.71C128.39,228.59,127.77,247.83,126.94,272.53Zm-18.75-5.82-.55,0q.66,9.78,1.33,19.56c.72,10.48,1.37,21,2.26,31.44.16,1.93.16,4.37,3.55,4.46s3.77-2.26,4.16-4.44c.55-3,.71-6.08,1-9.14,1-12.2,2.73-24.41,2.72-36.62,0-14.57-1.48-29.14-2.41-43.7-.31-4.8-.75-9.6-1.41-14.36-.5-3.62-4.18-5.48-6.18-3.18-1.1,1.27-1.45,3.47-1.56,5.28C110,232.93,109.13,249.82,108.19,266.71Zm-4,5.79c-1.34-15.06-2.58-30-4.1-44.92-.17-1.61-2-3.06-3-4.59-1.31,1.54-3.62,3-3.77,4.63-1.22,13.93-2.83,27.9-2.79,41.85,0,15.56,1.65,31.11,2.7,46.66a11.08,11.08,0,0,0,1.63,4.44c1.27,2.27,2.85,2.16,4.08-.06a9.81,9.81,0,0,0,1.2-3.71Q102.2,294.63,104.17,272.5Zm-19.27.84c-.87-10-1.58-18.76-2.38-27.45-.63-6.81-1.23-13.63-2.15-20.41-.16-1.2-1.8-2.2-2.77-3.29A15.3,15.3,0,0,0,74.85,225a8.29,8.29,0,0,0-.66,3.38c-.6,7.55-1.24,15.1-1.69,22.66-.54,8.87-1.45,17.76-1.2,26.61.32,11.35,1.6,22.68,2.55,34A24.74,24.74,0,0,0,75,318.06a3.68,3.68,0,0,0,2.85,2,3.51,3.51,0,0,0,2.39-2.42C82,302.45,83.48,287.24,84.9,273.34Zm-33.39-1.71c1.2,11.84,2.6,26.15,4.21,40.44.16,1.4,1.64,2.65,2.5,4,1-1.34,2.63-2.59,2.83-4,1.21-8.64,2.16-17.33,3-26,.54-5.34,1.48-10.75,1.08-16-1-12.91-2.55-25.77-4.13-38.62-.17-1.43-1.91-2.67-2.92-4-.83,1.32-2.25,2.57-2.41,4C54.27,243.88,53.05,256.48,51.51,271.63ZM40.17,298l1.48.19a76.79,76.79,0,0,0,2.18-7.39c.68-3.42.8-6.95,1.53-10.36,2.29-10.65-1.34-20.8-2.49-31.15-.1-.87-1.42-1.62-2.17-2.42-.73.81-1.9,1.51-2.12,2.44C37.23,255,35.79,260.73,35,266.52c-1.41,9.8,1.89,19.12,3.63,28.58A10.72,10.72,0,0,0,40.17,298Z"/></g></g></svg>