<svg xmlns="http://www.w3.org/2000/svg" viewBox="0 0 500 500"><g id="Ebene_2" data-name="Ebene 2"><g id="Ebene_1-2" data-name="Ebene 1"><path d="M250.13,0C387.49-.15,500,112.55,500,250S387.28,500.21,249.6,500C112.37,499.79-.13,387.26,0,249.71.13,112.44,112.64-.28,250.13,0ZM271,204.76c.65.27.83.42,1,.39q4.79-1.14,9.55-2.32c17.11-4.25,28.37,6,25.39,23.31-2.61,15.21-10.4,28.23-18.72,40.78a157.3,157.3,0,0,1-17.6,21.71c-5,5.18-9.74,4.2-13.85-1.74a40.47,40.47,0,0,1-4.58-8.71c-9.21-24.33-12.38-50-16.73-75.44-2.28-13.29-3.63-26.81-10.22-39-6.7-12.39-17.54-18.53-31.38-16A39.64,39.64,0,0,0,176.86,155c-16.87,13.27-33.27,27.16-49.59,41.12-11.84,10.12-11.59,10.28-1.45,22.38,2.28,2.72,4.11,2.92,7,.91a113.67,113.67,0,0,1,12.83-7.84c5.67-2.93,10.53-1.92,14.13,3.34a49.89,49.89,0,0,1,6.89,13.29c8.54,28.15,16.67,56.42,25,84.62,4.71,15.95,9.46,31.95,18.9,45.91,8.75,12.92,20,20,37.89,14.48,13.05-4,24.21-11.24,34.42-19.86,37.52-31.68,66-70.47,87.68-114.28,8.86-17.88,14.52-36.68,12.79-57.1-1.47-17.33-12-31.46-28.49-36.69-13.72-4.36-27.11-2.37-39.86,3.85C292.78,160,279.7,178.6,271.28,201.07A13.34,13.34,0,0,0,271,204.76Z"/></g></g></svg>