<svg xmlns="http://www.w3.org/2000/svg" viewBox="0 0 496.79 496.93"><g id="Ebene_2" data-name="Ebene 2"><g id="Ebene_1-2" data-name="Ebene 1"><path d="M0,250.94C.72,181.77,24.43,123.58,71,74.66,119.83,26,178.85,1.33,247.72,0c66.46.55,123.83,23.84,172.49,68.93,45.32,44.56,71,98.41,75.84,161.85,3.56,46.6-5.72,90.77-27.32,132.2a244.94,244.94,0,0,1-89.36,96.48c-39.85,24.73-83.48,36.7-130.27,37.47q-99.71-1.19-172.57-69.24C26.72,378.66,1.6,319,0,250.94ZM47.53,233.6,160.16,403.77,261.41,258.91a7.4,7.4,0,0,0-.41-1q-3.5-5.26-7-10.51l-17.72-26.76q-7.26-11-14.53-21.93c-1.12-1.68-1.15-1.65-3.14-1.22-7.44,1.62-14.87,3.26-22.32,4.83-10.17,2.15-20.36,4.22-30.53,6.36-7.16,1.5-14.31,3.07-21.48,4.58-4.09.86-8.21,1.62-12.31,2.46-1.82.38-3.6.88-5.41,1.25-5.23,1.08-10.48,2.06-15.7,3.19-4.31.93-8.6,2-12.9,3-.34.08-.69.14-1,.21-3.56.67-7.14,1.31-10.69,2-3.84.76-7.66,1.6-11.49,2.41l-4.59,1c-4.38.93-8.76,1.89-13.14,2.81C54,232.3,50.92,232.91,47.53,233.6Zm230.84,25.9q35.22,53.19,70.44,106.42l98.66-145.55-106.06-51ZM270,271.56,175,407.49c1.07-.12,1.77-.14,2.44-.28,4.73-1,9.45-2.08,14.19-3.09,6.41-1.37,12.83-2.68,19.24-4.05,5.57-1.19,11.12-2.45,16.7-3.64,7.66-1.62,15.33-3.2,23-4.81q9-1.87,18-3.78l22.16-4.67,18-3.79c6.34-1.35,12.67-2.73,19-4.09l9.59-2.08Zm-57.85-87.39c-22.48-34-44.81-67.69-67.26-101.62L51,216.78a12.15,12.15,0,0,0-.66,1.09.3.3,0,0,0,0,.21c0,.06.07.1.19.25Zm57.82,62.57,58.46-83.69L162,83l-.26.35Z"/></g></g></svg>