<svg xmlns="http://www.w3.org/2000/svg" viewBox="0 0 496.65 496.76"><g id="Ebene_2" data-name="Ebene 2"><g id="Ebene_1-2" data-name="Ebene 1"><path d="M262.62,0c9.21,1.26,18.49,2.19,27.64,3.83,66,11.78,119.21,44.65,158.81,98.67,34.83,47.52,50.5,101.32,47.14,160.05-6.36,110.79-84,202.44-192,227.73-116.55,27.3-237.23-33.8-284-143.79C-38.56,208.45,35.91,51.05,179.8,10c16.52-4.72,34-6.22,51-9.23,1-.17,1.9-.52,2.85-.78ZM248.09,15.81C119.19,17.75,16.46,119.27,16.72,249,17,378.45,120.86,481.17,249.83,480.68c129.36-.49,231.73-104.58,231.36-232.9C480.82,120.59,379.32,16.85,248.09,15.81Z"/><path d="M162.33,400.28,52.24,234c8.1-1.76,15.69-3.44,23.3-5Q146.08,214,216.64,199c3.68-.78,5.83-.25,8.08,3.24,11.51,17.92,23.37,35.63,35.22,53.33,1.39,2.08,1.63,3.46.09,5.65q-48.45,69.11-96.74,138.33A7.69,7.69,0,0,1,162.33,400.28Z"/><path d="M340.12,171c34.49,16.61,68.8,33.11,103.68,49.9L347.13,363.55c-9-13.6-17.76-26.74-26.47-39.89q-20.12-30.39-40.22-60.78c-1.46-2.2-2.37-3.81-.44-6.54,19.68-27.87,39.18-55.87,58.74-83.83A18.6,18.6,0,0,1,340.12,171Z"/><path d="M270,270.87l66,99.72L176.64,404.41Z"/><path d="M147.57,85.93l66,99.72L54.31,219.34Z"/><path d="M165.16,86.81l162.16,78L269.93,247,164.48,87.67Z"/></g></g></svg>