<svg xmlns="http://www.w3.org/2000/svg" viewBox="0 0 500 499.64"><g id="Ebene_2" data-name="Ebene 2"><g id="Ebene_1-2" data-name="Ebene 1"><path d="M250.35,0C388.51.1,500.1,111.93,500,250.17c-.1,138.06-112,249.57-250.35,249.47C111.49,499.53-.1,387.71,0,249.47.1,111.41,112-.1,250.35,0Zm0,373.49c36.43-1.42,75.09-2.23,113.64-4.65,31.39-2,47.27-15.66,52.51-47a441.41,441.41,0,0,0,.13-145c-5.41-32.87-20.8-47.12-54.06-47.92-73.25-1.78-146.57-2.49-219.82-1.17-41.45.75-57.41,15.34-62.77,54.37-6.2,45.07-6.43,90.65.49,135.73,5.33,34.69,19.17,48.06,54.23,51C172.33,371.9,210.25,372,250.31,373.49Z"/><path d="M248.33,353.64c-35,0-70.09.44-105.13-.11-29.71-.47-42.29-9.6-46.2-37.57-6.39-45.84-7.1-92.07.84-137.87,4-23.28,12-31.39,35.79-32.67,46.11-2.48,92.33-3.12,138.52-3.43,29.45-.19,59,.71,88.37,2.75,27.29,1.89,39.67,13,40.81,40.29,1.78,42.44,1.8,85.06,0,127.5-1.21,28.87-15.59,40.28-46.69,40.92C319.23,354.19,283.77,353.62,248.33,353.64ZM207.1,178.05V310.3L328,244.13Z"/><path d="M223.17,282.28V206.12l69.57,38Z"/></g></g></svg>